<?xml version="1.0" encoding="utf-8"?>
<!-- Generator: Adobe Illustrator 24.3.0, SVG Export Plug-In . SVG Version: 6.00 Build 0)  -->
<svg version="1.1" id="Layer_1" xmlns="http://www.w3.org/2000/svg" xmlns:xlink="http://www.w3.org/1999/xlink" x="0px" y="0px"
	 viewBox="0 0 960 960" style="enable-background:new 0 0 960 960;" xml:space="preserve">
<style type="text/css">
	.st0{fill:#FFFFFF;}
	.st1{fill:#FFFFFF;stroke:#FFFFFF;stroke-miterlimit:10;}
	.st2{fill:#FFFFFF;stroke:#000000;stroke-miterlimit:10;}
	.st3{fill:none;stroke:#FFFFFF;stroke-width:4.652;stroke-linecap:round;stroke-linejoin:round;}
	.st4{fill:none;stroke:#171717;stroke-width:4.652;stroke-linecap:round;stroke-linejoin:round;}
	.st5{opacity:0.85;fill-rule:evenodd;clip-rule:evenodd;fill:#FFFFFF;}
	.st6{opacity:0.85;fill-rule:evenodd;clip-rule:evenodd;fill:#FFFFFF;stroke:#000000;stroke-miterlimit:10;}
	.st7{opacity:0.1;}
	.st8{fill:#171717;stroke:#FFFFFF;stroke-miterlimit:10;}
	.st9{fill:#171717;}
</style>
<path class="st0" d="M873.6,354.2l-15.7,12.1l0.2,20.4l-15.3-12l-18.2,6.9l6.2-19.4L819.3,346l19.2-0.1l11.1-16.9l5.6,19.4
	L873.6,354.2z"/>
<path class="st0" d="M716.8,123.9c0.4,3.2,0,6.5-1.1,9.6c-1.1,3-3,5.8-5.4,7.9c-2.4,2.2-5.4,3.7-8.5,4.5c-3.2,0.8-6.5,0.8-9.6,0
	c-3.2-0.8-6.1-2.3-8.5-4.5c-2.4-2.2-4.3-4.9-5.4-8c-1.1-3.1-1.5-6.3-1-9.6c0.4-3.2,1.7-6.3,3.6-8.9c8.4-11.7,26-10.2,33.4,1.6
	C715.6,118.7,716.5,121.3,716.8,123.9L716.8,123.9z"/>
<path class="st1" d="M688.8,309.6l-0.8,0c0.6-9,0.6-19.6-2.2-31.3l0.2,0c9,0,18-0.6,27-1.6c-1.6,4.3-2.1,8.9-2.6,13.5
	c-0.9,7.7-1.8,15.4-2.6,23.1c-5.6-2.6-12.3-1.1-18.2-2.9c-0.1,0-0.3-0.1-0.4-0.2c-0.1-0.1-0.2-0.2-0.3-0.3
	C688.8,309.7,688.8,309.6,688.8,309.6z"/>
<path class="st0" d="M689.5,310.2c5.9,1.9,12.6,0.3,18.2,2.9c0.9-7.7,1.7-15.4,2.6-23.1c0.5-4.6,1-9.2,2.6-13.5
	c-9,1.1-18,1.6-27,1.6l-0.2,0c-1.3-5.5-3.2-10.9-5.5-16l-0.1-0.5c12.4-8.5,24.7-25,34.7-42.8c5.6-9.8,10.4-20.1,14.6-30.6
	c0.4-1.1,0.9-2.2,1.3-3.2l1,0.4c20.6,38.9,29.2,91.8,1.1,129.2c-8.6,12.4-22.7,28.7-38.5,25.5c-1.1-0.2-2.3-0.5-3.4-0.9
	c-6.2-4.8-4-15.2-3-29.7l0.8,0c0,0,0,0.1,0,0.1c0.1,0.1,0.2,0.2,0.3,0.3S689.3,310.2,689.5,310.2L689.5,310.2z"/>
<path class="st0" d="M665,182.9c27.7-23.3,28,14.2,21.6,49.4l-0.6-0.1c-4.9-1.5-9.4-3.9-13.5-7.1c-4.7,12.1-9.9,24-15.7,35.6
	c6.9,2.3,13.6,5.4,19.8,9.1l0.1,0c-1.8,4.8-3.5,8.3-5,10.2c-7.1,12.2-12.6,28.5-26,34.8c-15.6,2.4-21.9-16.5-21.6-29.4
	c0.3-12.9,2.3-25.6,6.1-37.9c0.1-0.2,0.1-0.4,0.2-0.6C637.6,223.5,650.2,201.5,665,182.9z"/>
<path class="st0" d="M656.7,260.7c5.8-11.6,11-23.5,15.7-35.6c4,3.1,8.6,5.5,13.5,7.1l0.6,0.1c-1.8,9.9-4.2,19.6-7.1,29.2
	c-0.9,3.1-1.9,5.9-2.8,8.4l-0.1,0C670.3,266.1,663.6,263,656.7,260.7L656.7,260.7z"/>
<path class="st0" d="M669.1,78.6c16.3-27.1,36-46.2,56.9-35.6c22.2,11.2,26.3,36.5,23.7,63.1l-0.1,0c-4.1-5.3-10-8.9-15.9-11.9
	c-19.9-10.3-42.1-15.6-64.5-15.5L669.1,78.6z"/>
<path class="st0" d="M626.5,197.1c-0.6,16.5,1.1,33.3,2.9,49.4l1.1,0.3c-0.1,0.2-0.1,0.4-0.2,0.6l-1.3-0.4
	c-27.8-4.1-41.4,21.8-43.2,45.8c-1.2,1.4-3.4,0.5-4.9-0.6c-1.8-1.5-3.5-3.1-5.1-4.8c-13.3-15.4-11.7-39.2-6.4-58
	c0.7-4.1,1.8-8.1,3.1-12c6.3,4.8,12.8,9.3,19.5,13.7c5.7-8.4,10.9-17,15.6-26l-17.3-15.5l-0.7-0.6c11.6-12.8,26.9-22.5,43.6-29.3
	l0.1,0c-0.3,0.8-0.5,1.5-0.8,2.2c-2.3,6.7-3.9,13.6-4.9,20.6C627.1,187.4,626.6,192.3,626.5,197.1L626.5,197.1z"/>
<path class="st0" d="M577.9,658.6c22.3,4.9,40.1-11.8,39.3-33.3h0c5.8,12.8,5,28.1-0.6,40.9c-5.6,12.9-15.9,23.4-27.8,30.9
	c-2.9,1.9-6.1,3.5-9.3,4.8c-1.7,0.6-3.4,1.1-5.2,1.5l-0.4,0c0.4-15,1.3-29.9,2.3-44.9L577.9,658.6z"/>
<path class="st2" d="M602.6,918.3c-23.2-4.2-45.9-11.1-67.6-20.5l-0.8-0.4c0.8-0.8,1.5-1.7,2.1-2.7c1.3-2.2,2.1-4.6,2.4-7.1l0.3,0
	c2.2,0.5,4.4,1,6.6,1.6c6.5,1.8,12.8,4,19.2,6.2c4.1,1.4,8.3,2.8,12.5,4.1c5,1.5,10,2.7,15.2,3.5c2.4,0.4,4.8,0.6,7.2,0.7
	c4.4,0.2,8.8-0.3,13.1-1.7c6.5-2.2,12.3-7,14.3-13.6c1.4-4.6,0.8-9.6-0.1-14.3c-0.7-3.3-1.6-6.7-3.8-9.3c-1-1.1-2.2-2.1-3.5-2.8
	c-1.7-1-3.4-1.8-5.2-2.5c-7.1-2.9-14.2-5.5-21.5-7.8c-1.5-0.5-3-1-4.6-1.4l-0.1-0.6c13.9-2.3,27.6-5.9,40.9-10.6
	c7,6,14.1,12.1,19.3,19.7c5.3,7.7,8.7,17.3,7.1,26.5c-1,5.8-3.8,11.1-6.7,16.2c-2.3,4-4.7,8-8.1,11.1c-4.9,4.5-11.6,6.7-18.3,7.2
	C615.8,920.5,609.1,919.5,602.6,918.3z"/>
<path class="st0" d="M590.4,189.6l17.3,15.5c-4.7,8.9-10,17.6-15.6,26c-6.7-4.3-13.1-8.9-19.5-13.7c3.7-10.6,9.5-20.2,17.1-28.5
	L590.4,189.6z"/>
<path class="st0" d="M509.3,194.3l9.2,18.2l-19-3.9l-13.3,14.2l-3-20.2l-17.4-9.4l17.2-8.6l2.5-20l13.6,14.9l18.9-2.9L509.3,194.3z"
	/>
<path class="st0" d="M462.1,417.6c-8.6-2.9-16.8-7.4-25.8-9c-29-5.4-43.3,18.1-38.7,44.5c0.7,5.4-1.7,9.5-5.2,13.3
	c-0.9,1-1.9,2-2.9,2.9c-16.5,12-14.8-14.1-8.9-25c0.8-0.9,1.5-1.9,2-2.9c-0.8,0.9-1.5,1.9-2,2.9c-4.4,5.2-12.3,8.5-17.4,2.6
	c-3.6-12,14-32,20.7-36.1c-28.6-0.9-9.2-33.2,9.9-22.5c-12.7-25.8,14.7-39.8,23.9-10.9c-6.9-29.2,24.1-33.8,21.1-2.8
	c5.1-35.6,36.1-25.8,18.9,7.6c24.5-34.3,48.5-1.3,11.3,15.3c27.8-9.2,34.7,25.6,2.4,22.3C468.3,419.4,465.2,418.7,462.1,417.6
	L462.1,417.6z"/>
<path class="st0" d="M460.4,536.6c-1.6,6.2-7.9,4.9-23.6,4.6c-17.6-0.8-35.8,3-53-1.2c-0.9-0.7-1.6-1.7-1.9-2.8
	c-1.4-4.4,1-10.8,0.8-15.3c0.1-3,2-5.4,5.1-4.7c2.1,0.2,4.1,0.5,6.2,0.6c13.5,1.1,26.8,0.7,40.3,0.7c1,0,2.1,0,3.1,0
	c9,0.1,21.8-2,22.7,5.7C460.8,530,461,534,460.4,536.6z"/>
<path class="st0" d="M359.6,847.5c4.2-3,8.4-5.9,12.5-8.9c1.4-1,2.8-2,4.1-2.9c1.3,3,3.4,5.6,6.1,7.4l-0.4,0.6
	c-13.5,12-28.8,21.7-45.3,28.9c-4.8,2.1-10,4-15.2,3.3c-3.1-0.5-6-1.6-8.6-3.3c-7.4-4.7-12.5-12.2-16.8-19.8c-2-3.6-4-7.3-4.8-11.4
	c-1.2-6.1,0.4-12.4,3.3-17.9c2.9-5.5,7-10.2,11.1-14.8c10.2-11.2,21.1-21.9,32.5-31.9c4.9-4.3,10.2-8.6,16.6-10
	c5.4-1.2,11-0.2,16.4,0.8c2.8,2.4,5.6,4.9,8.3,7.4c0.2,0,0.4,0,0.7-0.1c6.1-0.7,12.2-1.3,18.4-1.8l0,0.5
	c-9.4,4.5-15.5,13.3-19.3,23.2l-0.2-0.1c-3.1,0.5-6.2,1.1-9.2,2c-4.5,1.2-9,2.8-13.3,4.6c-3.4,1.4-6.8,3-10.2,4.7
	c-0.2,0.1-0.4,0.2-0.6,0.3c-4.8,2.3-9.4,5-13.8,8.2c-1.5,1.1-2.9,2.4-4.3,3.7c-5.2,5-9.1,11.7-9.5,19c-0.4,7.2,3.3,14.9,9.9,17.9
	c2,0.9,4.1,1.4,6.3,1.5c3.2,0.1,6.4-0.4,9.4-1.6c2.3-0.9,4.6-2,6.7-3.3c2.5-1.5,4.9-3.2,7.2-4.8L359.6,847.5z"/>
<path class="st0" d="M361.7,333.3l-2.6,0.6c-21,11.7-41.9,23.4-62.9,35.1c-11.8,8-19.3,5.4-30.4-1c-2.2-14,13.1-29.3,9.2-35.3
	c-23.3-22.4-99.8,65.8-102.3,39.4c3.2-21.7,13.1-41.9,19.4-62.8c-16.8,0.3-29.7,17.7-47,19.5c-9.8-42.9,20.7-86.6,48.4-117.1
	c47-11.1,99.3,2.4,137.8,54.7c-1.9,2.5-3.4,5.2-4.5,8.1c-9,25.2,10.3,38.7,27.1,33.3l0.3,1C357.5,316.8,360,325,361.7,333.3z"/>
<path class="st0" d="M343.8,665.6l0-0.2c6.8-20.6,11.3-41.8,13.4-63.4c-18,2.6-35.3,8.1-45.8,23.2
	C297,650.3,322.4,662.2,343.8,665.6z M361.8,678.5c25-26.9,6-36.7-11.5-7.4h0c0,14.9,0.7,30,1.2,44.9c0.1,2.2,0.1,4.4,0.2,6.6
	c-3.2,0.5-6.4,1.1-9.7,1.6c-8.2,1.5-16.6,3.1-25.1,4.4c-23.1,3.6-46.7,5-67.3-5.4c-0.7-0.4-1.4-0.7-2.1-1.1
	c-40.6-34.5-23.9-108.8,13.6-139.8c34.6-26.7,79-35.3,120.8-45.2l0.1,0c0.3,1.1,1,2.1,1.9,2.8c17.2,4.2,35.4,0.4,53,1.2
	c15.7,0.3,22.1,1.6,23.6-4.6c8.7-0.4,17.4-0.1,26.1,1l0.3,0.1c-2.3,5.1-2.4,11.1,1,17.3c-13.6-7.8-28.8,10.1-28.6,23.1
	c-22,0.2-43.8-0.2-65.1-1.3c-0.5,33.9-4.7,67.6-8.3,101.3C377.7,678,369.2,675.6,361.8,678.5L361.8,678.5z"/>
<path class="st0" d="M225.8,143.2l14.4,18.1l-19.8-3.5L208,173.2l-0.5-20.9l-21.3-5.3l16.2-11.9l0.2-20.6l14.5,16.5l19.3-2.7
	L225.8,143.2z"/>
<path class="st1" d="M207.8,491.5l0,0.3c-36.6-5.3-70.6-23.6-96.9-52.1c15.3-5.8,30.8-20.7,47.6-17.5c-3.2,5.7-4.8,12.2-4.4,18.8
	c34.9,3,61.1-68.4,79.6-58c-9.7,19.9-22.4,38.8-30.3,59.3c2.6,20.7,37.6-6.4,44.6-14.5c10.9-9.6,26.2-25.2,40.9-20
	C274.1,443.7,238.1,467.9,207.8,491.5z"/>
<path class="st3" d="M380.7,444.4c-5.9,10.9-7.6,37,8.9,25c1-1,2-1.9,2.9-2.9c3.5-3.8,5.9-7.9,5.2-13.3
	c-4.6-26.4,9.7-49.9,38.7-44.5c9,1.6,17.1,6.1,25.8,9c3.1,1.1,6.2,1.8,9.4,2.2c32.3,3.3,25.4-31.5-2.4-22.3
	c37.2-16.6,13.3-49.6-11.3-15.3c17.3-33.4-13.7-43.2-18.9-7.6c3-31.1-28-26.5-21.1,2.8c-9.2-28.9-36.6-14.9-23.9,10.9
	c-19.1-10.7-38.5,21.7-9.9,22.5c-6.7,4.1-24.4,24-20.7,36.1C368.3,452.9,376.2,449.5,380.7,444.4"/>
<path class="st3" d="M380.7,444.4c0.8-0.9,1.5-1.9,2-2.9C381.9,442.3,381.2,443.3,380.7,444.4L380.7,444.4z"/>
<path class="st3" d="M448.8,425.9c-41.4-19.8,3.5,41.4-19.4,39.9"/>
<path class="st3" d="M418.9,434.5c-1.8-1.3-3.9-1.9-6.1-1.8c-2.2,0.1-4.3,0.7-6.2,1.7"/>
<path class="st3" d="M440.2,437.1c0.7-0.6,1.6-1,2.5-1.2c0.9-0.2,1.9-0.1,2.8,0.1c1.8,0.5,3.5,1.4,4.9,2.7"/>
<path class="st3" d="M405.4,475.5c1,2.6,2.7,4.9,5.1,6.4c1.2,0.7,2.5,1.2,3.9,1.4c1.4,0.2,2.8,0,4.1-0.4"/>
<path class="st3" d="M462.1,417.6L462.1,417.6c-1,16.3-1.9,32.5-2.9,48.7c1.2,31.4-26.9,20.9-24.9,51.9"/>
<path class="st3" d="M392.3,466.1l0,0.3c2.2,16.4,2.8,33.1,1.7,49.6"/>
<path class="st4" d="M394,517.7c-2.1-0.1-4.1-0.3-6.2-0.6c-3.1-0.7-5,1.8-5.1,4.7c0.2,4.4-2.2,10.9-0.8,15.3c0.3,1.1,1,2.1,1.9,2.8
	c17.2,4.2,35.4,0.4,53,1.2c15.7,0.3,22.1,1.6,23.6-4.6c0.7-2.6,0.5-6.5-0.3-12.4c-0.9-7.7-13.7-5.6-22.7-5.7c-1,0-2.1,0-3.1,0
	C420.8,518.3,407.4,518.8,394,517.7z"/>
<path class="st4" d="M381.8,537.1c-41.7,10-86.2,18.5-120.8,45.2c-37.5,31-54.2,105.2-13.6,139.8c0.7,0.4,1.4,0.7,2.1,1.1
	c20.6,10.4,44.2,9,67.3,5.4c8.5-1.3,16.9-2.9,25.1-4.4c3.3-0.6,6.5-1.1,9.7-1.6c-0.1-2.2-0.1-4.4-0.2-6.6c-0.5-14.9-1.2-30-1.2-44.9
	c0-1.6,0-3.1,0-4.7c-2.1-0.2-4.3-0.4-6.5-0.8c-21.3-3.3-46.8-15.3-32.4-40.4c10.5-15.1,27.9-20.6,45.8-23.2
	c9.6-1.4,19.4-1.9,28.5-2.6"/>
<path class="st4" d="M350.3,671.1c17.5-29.3,36.5-19.5,11.5,7.4c7.5-2.9,16-0.5,23.9-0.4c0.4,0,0.7,0,1.1,0"/>
<path class="st4" d="M351.4,715.9C351.4,715.9,351.4,715.9,351.4,715.9c10.1,2,20.1,4.1,30.1,6.1c0.3,0,0.6,0.1,0.9,0.2"/>
<path class="st4" d="M381.7,706.7c-5.3-1.5-10.6-2.7-16.1-3.6"/>
<path class="st4" d="M383.8,690.1c-5-1.4-10.1-2.4-15.3-3"/>
<path class="st3" d="M459.1,578.5c0-0.1,0-0.2,0-0.4c-0.2-13,15.1-31,28.6-23.1c-3.3-6.2-3.2-12.3-1-17.3
	c4.7-10.5,18.8-16.9,30.9-12.2c0.2,0.1,0.4,0.2,0.6,0.2"/>
<path class="st3" d="M514.9,533.6c0.5-2.8,1.4-5.6,2.6-8.2c1.2-2.8,3.5-5,6.2-6.2c1.2-0.5,2.5-0.8,3.8-0.8"/>
<path class="st3" d="M564.4,435.7c-2.6-1-5.4-1.7-8.2-2c-27.4-3.1-49.3,30.3-30.6,51.4c1.9,2.1,4,3.9,6.2,5.5"/>
<path class="st3" d="M591.2,350.8c-3.1,0.5-6.1,1.5-8.9,2.9c-18.2,9.3-20.5,35.5-11.2,53.9c1.1,2.2,2.4,4.3,3.8,6.2"/>
<path class="st3" d="M694.3,340.2C694.3,340.2,694.3,340.2,694.3,340.2c8.9,36.2-19.1,73.2-54.2,61.2c-4-1.4-7.8-3.2-11.3-5.5"/>
<path class="st3" d="M609,517.3c2,0.2,3.9,0.2,5.9,0c41.2-2.5,47.8-64.6,8.7-74.7c-3.5-0.9-7.1-1.3-10.7-1.4"/>
<path class="st3" d="M604.8,618c3.9,1,7.8,1.5,11.8,1.5c36.2-0.7,28.2-58-4.9-66c-2.7-0.7-5.4-1-8.2-0.9"/>
<path class="st3" d="M623.4,443c0.1-0.1,0.2-0.3,0.2-0.4c1.9-3.9,2.6-8.2,2.1-12.4c-0.5-4.3-2.2-8.3-5-11.6"/>
<path class="st3" d="M609.7,421.2c3.6-0.6,7.1-1.3,10.5-2.3c8.5-2.4,16.1-6.4,18.7-14.7c0,0,0-0.1,0-0.1"/>
<path class="st3" d="M571.4,407.6c-0.1,0.1-0.2,0.1-0.4,0.2c-8.3,5-13.6,16.5-14.7,25.8"/>
<path class="st3" d="M525.7,485.2c-11.3,7.7-7.5,23.6-1.9,33.9"/>
<path class="st3" d="M576.1,287.2c-0.1,0.1-0.2,0.1-0.3,0.2c-25.6,19.2-15,48,6.4,65.4"/>
<path class="st3" d="M611.6,553.7c0-0.1,0.1-0.1,0.1-0.2c5.8-10.8,5.2-24.4,3.2-36.2c0-0.1,0-0.1,0-0.2"/>
<path class="st3" d="M577.9,658.6c22.3,4.9,40.1-11.8,39.3-33.3c-0.1-1.8-0.2-3.5-0.6-5.3"/>
<path class="st3" d="M717.1,427.2c-1.4-3.6-3.5-6.8-6.2-9.6c-15.1-15.2-44-6.6-48,17.2c-11.5,30.6,16.5,58.2,41.4,39.3
	c2.2-1.7,4.2-3.6,6.1-5.7"/>
<path class="st3" d="M689.6,537.6c-1.5-1-3.1-1.8-4.7-2.4c-20.1-7.5-39.5,20.8-27,39.3c12.2,21.4,45.6,14.5,50-8.4
	c0.3-1.4,0.4-2.7,0.5-4.1"/>
<path class="st3" d="M704.3,474C704.3,474,704.3,474.1,704.3,474c22.8,38.1,61.5-3.8,58.7-34.7c-1.6-24.8-33.3-38.1-52.1-21.9
	c-0.1,0.1-0.1,0.1-0.2,0.2"/>
<path class="st3" d="M708,566.1c21,7.1,42-22.8,28.7-40.3c-13.5-16.2-45.4-12.3-51.7,8.8"/>
<path class="st3" d="M556.5,396.2c-2.2-19.3-39.3-18.1-36.3,3.3C521.6,430.4,557.4,423.8,556.5,396.2z"/>
<path class="st3" d="M551.8,346.5c16.5-30.4-22.7-35.3-31.2-10.7C519.6,352.3,542.9,361.6,551.8,346.5z"/>
<path class="st3" d="M633.2,159.7c-16.7,6.8-32,16.5-43.6,29.3c-7.6,8.2-13.4,17.9-17.1,28.5c-1.4,3.9-2.4,7.9-3.1,12
	c-5.4,18.8-7,42.7,6.4,58c1.5,1.8,3.2,3.4,5.1,4.8c1.4,1.1,3.7,2,4.9,0.6c1.8-24,15.4-49.9,43.2-45.8"/>
<path class="st3" d="M731.7,185.5c20.6,38.9,29.2,91.8,1.1,129.2c-8.6,12.4-22.7,28.7-38.5,25.5c-1.1-0.2-2.3-0.5-3.4-0.9
	c-6.2-4.8-4-15.2-3-29.7c0.6-9,0.6-19.6-2.2-31.3c-1.3-5.5-3.2-10.9-5.5-16"/>
<path class="st3" d="M686.5,232.3c6.5-35.2,6.1-72.7-21.6-49.4c-14.7,18.7-27.4,40.7-34.5,64c-0.1,0.2-0.1,0.4-0.2,0.6
	c-3.8,12.3-5.9,25-6.1,37.9c-0.3,12.9,6,31.8,21.6,29.4c13.3-6.3,18.9-22.6,26-34.8c1.5-1.8,3.2-5.4,5-10.2c0.9-2.5,1.9-5.3,2.8-8.4
	C682.4,251.9,684.7,242.1,686.5,232.3L686.5,232.3z"/>
<path class="st3" d="M680.1,261.7c12.4-8.5,24.7-25,34.7-42.8c5.6-9.8,10.4-20.1,14.6-30.6c0.4-1.1,0.9-2.2,1.3-3.2
	c1.9-5.1,3.5-9.8,4.7-14.2c4.5-16.5,12-41.1,14.3-64.8c2.6-26.5-1.5-51.8-23.7-63.1c-20.9-10.6-40.6,8.4-56.9,35.6
	c-6.8,11.5-12.8,23.5-18.1,35.8c-5.2,11.9-9.8,23.6-13.6,34h0c-1.5,4-2.8,7.8-4,11.4c-0.3,0.8-0.5,1.5-0.8,2.2
	c-2.3,6.7-3.9,13.6-4.9,20.6c-0.7,4.8-1.1,9.7-1.3,14.6c-0.6,16.5,1.1,33.3,2.9,49.4"/>
<path class="st4" d="M251,723.1l-1.5,0.1c-20.1,1.2-40.7,2.7-59.2,10.6c-19,8.1-35.8,24.4-38.7,44.9c-2.2,15.8,4.2,32,14.5,44.2
	c10.2,12.2,24,21.1,38.1,28.5c31.8,16.7,66.6,27.3,101.7,35.1c67.2,14.8,136.5,19.4,205.3,17.7c8.2-0.2,17.5-1.2,22.9-6.7
	c0.8-0.8,1.5-1.7,2.1-2.7c1.3-2.2,2.1-4.6,2.4-7.1c0.3-2.1,0.4-4.3,0.3-6.4c-0.2-7.8-1.6-15.5-4-22.9"/>
<path class="st4" d="M574.3,710.6c23.1-1.9,46.9-2,68.6,6c21.7,8,41.1,25.4,46.1,48.1c0.6,2.6,0.9,5.2,1.1,7.8
	c1,13.6-3.2,27.6-12.1,37.9c-4.9,5.6-11.1,10-17.5,13.9c-10,6-20.5,11-31.4,14.9c-13.3,4.7-27,8.3-40.9,10.6
	c-12.9,2.2-25.8,3.7-38.9,4.6c-2,0.2-3.9,0.3-5.9,0.4c-2.9,0.2-5.8,0.3-8.7,0.5c-47.5,2.3-95.2-0.7-142.1-8.9
	c-3.3-0.6-6.6-1.2-9.5-2.9c-0.2-0.1-0.5-0.3-0.7-0.4c-2.7-1.8-4.9-4.4-6.1-7.4c-2.8-6.4-2.7-14.7-1.5-21.9c0.9-5.8,2.4-11.5,4.5-17
	c3.8-9.9,9.9-18.7,19.3-23.2"/>
<path class="st3" d="M393.9,576.8c21.3,1.1,43.1,1.5,65.1,1.3c41.1-0.4,82.1-3.2,122.8-8.3c-1,29.8-3.6,59.3-5.6,88.7
	c-1,15-1.9,29.9-2.3,44.9c-0.1,2.4-0.1,4.8-0.2,7.3c-0.4,19,0.2,38,1.9,56.9c-58.1,6.6-118.6,0.9-177.1,5.6
	c-6.1,0.5-12.3,1.1-18.4,1.8c-0.2,0-0.4,0-0.7,0.1c-2.7-2.5-5.5-5-8.3-7.4c-16.9-14.6-35-27.6-54.3-38.7"/>
<path class="st3" d="M394,580c-0.5,33.3-4.7,66.5-8.3,99.7c-1.6,14.4-3.1,28.8-4.1,43.2c-0.7,9.5-1.2,18.9-1.5,28.4
	c-0.2,7.4-0.2,14.9,0,22.3"/>
<path class="st3" d="M342,724.5c12.4,8.9,25,17.7,37.6,26.4"/>
<path class="st3" d="M497.9,642.6c-1.9-1.4-4.1-2.3-6.4-2.9c-11-3.2-24.6-2.4-30.9,8.6c-9.4,14.3-7.5,28.5-0.4,37.5
	c1.9,2.5,4.3,4.6,6.9,6.2c11,6.8,26.8,4.9,37.4-13.7c1.8-4.1,2.8-8.4,3-12.9c0.1-4.4-0.6-8.9-2.2-13
	C503.9,648.5,501.3,645.1,497.9,642.6L497.9,642.6z"/>
<path class="st3" d="M458.2,687.6c-19.5,26.5-8.5,20.2,9,4.4c13.6-12.4,26.4-25.6,38.2-39.6c6.9-8.4,11.6-15.4,11.4-18.5
	c-5.9-0.8-10.8,3.6-14.6,7.4"/>
<path class="st3" d="M362.4,381.8c-6.5,36.5-28.3,69.4-60.4,91c-7.7,5.2-16,9.6-24.5,13.3c-22.5,7.1-46.3,9.1-69.7,5.7
	c-36.6-5.3-70.6-23.6-96.9-52.1c-3.3-3.5-6.4-7.2-9.4-11.1c-18.2-28.5-25-57.4-23.4-84.5c2.6-42.7,26.2-80.9,59.3-105.9
	c16.6-12.7,35.7-21.7,56.1-26.6c47-11.1,99.3,2.4,137.8,54.7l0.2,0.3"/>
<path class="st3" d="M354.2,308.9c3.3,7.9,5.8,16.1,7.5,24.5c3.3,16,3.5,32.4,0.7,48.4"/>
<path class="st3" d="M331.3,266.4c-1.9,2.5-3.4,5.2-4.5,8.1c-9,25.2,10.3,38.7,27.1,33.3c6.8-2.2,13.3-7.5,17.2-16.5
	C380.8,260.9,347.5,244.8,331.3,266.4z"/>
<path class="st3" d="M193.6,211.6c0,0-0.1,0.1-0.1,0.1c-27.7,30.5-58.2,74.2-48.4,117.1c17.4-1.8,30.2-19.2,47-19.5
	c-6.3,20.9-16.2,41.1-19.4,62.8c2.5,26.3,79.1-61.8,102.3-39.4c3.9,6.1-11.5,21.3-9.2,35.3c11.1,6.4,18.6,8.9,30.4,1
	c21-11.7,41.9-23.4,62.9-35.1"/>
<path class="st3" d="M138.6,236.3c-0.4,0.7-0.8,1.3-1.2,2c-8.6,14.4-13.9,30.5-15.4,47.2c4-0.7,8.1-1.5,12.1-2.2
	c0.5,14.3-26.2,69.3-36.8,79.8c-0.7-8.7-0.4-17.4,0.8-26c-8.3,3.7-7.9,18.2-16.8,20.2c-0.7-3.3-2.8-9.7-3-13.1"/>
<path class="st3" d="M110.3,439.9c0.2-0.1,0.4-0.1,0.5-0.2c15.3-5.8,30.8-20.7,47.6-17.5c-3.2,5.7-4.8,12.2-4.4,18.8
	c34.9,3,61.1-68.4,79.6-58c-9.7,19.9-22.4,38.8-30.3,59.3c2.6,20.7,37.6-6.4,44.6-14.5c10.9-9.6,26.2-25.2,40.9-20
	c-14.7,35.7-50.7,59.9-81,83.6c1.1,0,2.1-0.1,3.2-0.2"/>
<path class="st3" d="M301.5,472.1c-7.7-2.3-15.9-2-23.3,1c-17.2,1.8,15.3-27,21.8-40.6c0.9-1.6,2.7-3.4,4.3-2.5
	c19,22.9,36.3-89.7,58-48.3v0c0,0.1,0.1,0.1,0.1,0.2"/>
<path class="st4" d="M357.2,601.9c0,0.1,0,0.1,0,0.2c-2.1,21.6-6.6,42.8-13.4,63.4"/>
<path class="st3" d="M574.3,703.4c1.8-0.4,3.5-0.9,5.2-1.5c3.3-1.3,6.4-2.9,9.3-4.8c11.9-7.5,22.1-18,27.8-30.9s6.4-28.1,0.6-40.9"
	/>
<path class="st4" d="M371.7,767.7c-0.1,0-0.3,0-0.4-0.1c-5.4-1-11-2-16.4-0.8c-6.4,1.4-11.6,5.7-16.6,10
	c-11.4,10-22.3,20.6-32.5,31.9c-4.2,4.6-8.2,9.3-11.1,14.8c-2.9,5.5-4.5,11.8-3.3,17.9c0.8,4.1,2.8,7.8,4.8,11.4
	c4.3,7.6,9.4,15.1,16.8,19.8c2.6,1.7,5.5,2.8,8.6,3.3c5.2,0.7,10.4-1.2,15.2-3.3c16.5-7.2,31.8-16.9,45.3-28.9"/>
<path class="st3" d="M379.1,796.7c-3.1,0.5-6.2,1.1-9.2,2c-4.5,1.2-9,2.8-13.3,4.6c-3.4,1.4-6.8,3-10.2,4.7
	c-0.2,0.1-0.4,0.2-0.6,0.3c-4.8,2.3-9.4,5-13.8,8.2c-1.5,1.1-2.9,2.4-4.3,3.7c-5.2,5-9.1,11.7-9.5,19c-0.4,7.2,3.3,14.9,9.9,17.9
	c2,0.9,4.1,1.4,6.3,1.5c3.2,0.1,6.4-0.4,9.4-1.6c2.3-0.9,4.6-2,6.7-3.3c2.5-1.5,4.9-3.2,7.2-4.8l1.7-1.2c4.2-3,8.4-5.9,12.5-8.9
	c1.4-1,2.8-2,4.1-2.9c0.1-0.1,0.3-0.2,0.4-0.3"/>
<path class="st3" d="M374.1,843.8c-0.6-1.7-1.3-3.4-1.9-5.1c-2.4-6.1-4.9-12.2-7.5-18.2c-2.5-5.8-5.2-11.5-8-17.2
	c-1.3-2.7-2.7-5.5-4.1-8.2"/>
<path class="st3" d="M358.5,855.3c0.4-2.6,0.7-5.2,1.1-7.8c1.4-9.1,3.1-18.1,5-27c1.6-7.3,3.3-14.6,5.3-21.8c0.4-1.5,0.8-3,1.2-4.5"
	/>
<path class="st3" d="M353.3,858.1c-0.9-1.5-1.8-3-2.7-4.5c-3.6-6.4-6.6-13.2-9.7-19.9c-2.6-5.9-5.6-11.7-8.8-17.3
	c-1.4-2.4-3-4.7-4.7-6.9"/>
<path class="st3" d="M333,863.2c0.6-1.6,1.1-3.2,1.6-4.7c2.6-8.1,4.6-16.4,6.4-24.7c0.7-3,1.3-6,1.9-9c1.2-5.6,2.4-11.2,3.6-16.8
	c0.4-1.8,0.8-3.7,1.2-5.5"/>
<path class="st3" d="M535,897.8c21.7,9.4,44.4,16.2,67.6,20.5c6.6,1.2,13.2,2.2,19.9,1.6c6.7-0.5,13.3-2.7,18.3-7.2
	c3.4-3.1,5.8-7.1,8.1-11.1c2.9-5.1,5.7-10.4,6.7-16.2c1.6-9.2-1.8-18.8-7.1-26.5c-5.2-7.6-12.3-13.7-19.3-19.7
	c-0.1-0.1-0.2-0.2-0.4-0.3"/>
<path class="st3" d="M541.6,892.7c1.3-1.1,2.7-2.2,4-3.3c4.3-3.6,8.7-7.2,13-10.9c10.4-8.8,20.3-18.2,29.7-28
	c1.5,0.5,3.1,0.9,4.6,1.4c7.3,2.3,14.5,4.9,21.5,7.8c1.8,0.7,3.5,1.5,5.2,2.5c1.3,0.8,2.5,1.7,3.5,2.8c2.2,2.6,3.1,6,3.8,9.3
	c1,4.7,1.5,9.7,0.1,14.3c-2,6.5-7.8,11.4-14.3,13.6c-4.2,1.3-8.6,1.9-13.1,1.7c-2.4-0.1-4.8-0.3-7.2-0.7c-5.1-0.8-10.2-2-15.2-3.5
	c-4.2-1.2-8.4-2.6-12.5-4.1c-6.4-2.2-12.7-4.4-19.2-6.2c-2.2-0.6-4.4-1.1-6.6-1.6"/>
<path class="st3" d="M566.2,899.5c-0.5-1.3-0.9-2.6-1.4-3.9c-2-5.7-4.1-11.4-6.2-17.1c-3-8-6.1-16-9.2-23.9c0-0.1,0-0.1-0.1-0.2"/>
<path class="st3" d="M573.1,903.4c1.4-1.2,2.8-2.5,4.2-3.7c6.3-5.6,12.6-11.2,18.9-16.7l23.3-20.6"/>
<path class="st3" d="M600.8,909.6c-0.4-1.9-0.8-3.8-1.1-5.8c-1.3-7-2.5-14-3.4-21c-1.5-10.3-2.6-20.6-3.4-31c0-0.1,0-0.1,0-0.2"/>
<path class="st3" d="M749.6,106.1c-4.1-5.3-10-8.9-15.9-11.9c-19.9-10.3-42.1-15.6-64.5-15.5"/>
<path class="st3" d="M680.7,114.8c-1.9,2.6-3.1,5.7-3.6,8.9c-0.4,3.2-0.1,6.5,1,9.6c1.1,3.1,3,5.8,5.4,8c2.4,2.2,5.3,3.7,8.5,4.5
	c3.2,0.8,6.5,0.8,9.6,0c3.2-0.8,6.1-2.3,8.5-4.5c2.4-2.2,4.3-4.9,5.4-7.9c1.1-3.1,1.5-6.3,1.1-9.6c-0.3-2.7-1.2-5.2-2.6-7.5
	C706.7,104.6,689.1,103.1,680.7,114.8z"/>
<path class="st3" d="M651.6,114.6c4.8,1.9,9.7,3.6,14.7,5.2c-5.2,11.5-9.6,23.4-13.2,35.6c-4.9-2.9-10.1-5.2-15.6-7"/>
<path class="st3" d="M714.5,218.8c-4.8-2-9.3-4.6-13.5-7.6c5.7-10,11-20.1,16-30.3c3.8,2.4,7.6,4.8,11.4,7.2"/>
<path class="st3" d="M626,197.1c0.2,0,0.3,0,0.5,0.1c1.9,0.2,3.7,0.6,5.6,1c2.4,0.6,4.9,1.1,7.3,1.7c0.3-5.8,1.2-11.6,2.8-17.3
	c0.1-0.3,0.1-0.7-0.2-0.8c-0.1,0-0.2,0-0.3,0l-13.4,0.9"/>
<path class="st3" d="M572.5,217.3c0,0,0.1,0,0.1,0.1c6.3,4.8,12.8,9.3,19.5,13.7c5.7-8.4,10.9-17,15.6-26l-17.3-15.5"/>
<path class="st3" d="M685.9,278.2c9,0,18-0.6,27-1.6c-1.6,4.3-2.1,8.9-2.6,13.5c-0.9,7.7-1.8,15.4-2.6,23.1
	c-5.6-2.6-12.3-1.1-18.2-2.9c-0.1,0-0.3-0.1-0.4-0.2c-0.1-0.1-0.2-0.2-0.3-0.3c0,0,0-0.1,0-0.1c0-0.2,0.3-0.5,0.5-0.4"/>
<path class="st3" d="M676.5,269.9c-6.2-3.8-12.9-6.8-19.8-9.1c5.8-11.6,11-23.5,15.7-35.6c4,3.1,8.6,5.5,13.5,7.1"/>
<path class="st3" d="M602.4,205.4c0-0.2-0.2-0.4-0.3-0.5c-0.2-0.1-0.4-0.2-0.6-0.2c-0.4,0.1-0.7,0.2-1,0.5c-0.3,0.3-0.4,0.6-0.5,1
	c0,0.3,0,0.6,0,0.8c0.1,0.3,0.2,0.5,0.4,0.7c0.2,0.2,0.4,0.3,0.7,0.4s0.6,0,0.8-0.1c0.2-0.1,0.4-0.3,0.5-0.5
	c0.1-0.2,0.2-0.4,0.3-0.6c0-0.2,0-0.5,0-0.7c0-0.2-0.1-0.4-0.3-0.6"/>
<path class="st3" d="M591.7,223.1c-0.4-0.1-0.9,0-1.3,0.3c-0.2,0.1-0.3,0.3-0.4,0.4s-0.2,0.4-0.2,0.6c0,0.2,0,0.4,0.1,0.6
	c0.1,0.2,0.2,0.4,0.3,0.5c0.1,0.1,0.3,0.2,0.5,0.3c0.2,0.1,0.4,0.1,0.6,0c0.2,0,0.4-0.1,0.5-0.2c0.2-0.1,0.3-0.3,0.4-0.5
	c0.1-0.3,0.1-0.6,0-1c-0.1-0.3-0.2-0.6-0.4-0.9"/>
<path class="st3" d="M675.3,231.8c-0.4-0.1-0.7-0.1-1.1,0c-0.4,0.1-0.7,0.3-1,0.5c-0.3,0.3-0.4,0.6-0.5,1c-0.1,0.4,0,0.7,0.2,1.1
	c0.2,0.3,0.5,0.5,0.9,0.7c0.4,0.1,0.7,0.1,1.1-0.1c0.2-0.1,0.3-0.2,0.4-0.4c0.1-0.1,0.2-0.3,0.2-0.5c0-0.2,0-0.4,0-0.5
	s-0.1-0.3-0.2-0.5"/>
<path class="st3" d="M667,254.5c-0.3-0.1-0.6-0.2-0.9-0.1c-0.3,0-0.6,0.2-0.8,0.4c-0.5,0.4-0.8,0.9-1.1,1.4
	c-0.2,0.4-0.4,0.8-0.4,1.3c0,0.2,0,0.5,0.1,0.7c0.1,0.2,0.2,0.4,0.4,0.5c0.2,0.1,0.5,0.2,0.7,0.2c1.1,0.1,2.4-0.5,2.5-1.7
	c0-0.6-0.3-1.2-0.7-1.7"/>
<path class="st3" d="M650.2,145.9c-0.2,0-0.4,0.1-0.7,0.2c-0.3,0.1-0.6,0.3-0.8,0.6c-0.2,0.3-0.3,0.6-0.3,0.9c0,0.2,0,0.4,0.1,0.6
	s0.2,0.4,0.4,0.5c0.2,0.2,0.4,0.3,0.6,0.3c0.2,0.1,0.4,0.1,0.7,0.1c0.3-0.1,0.6-0.3,0.9-0.5c0.3-0.2,0.5-0.5,0.6-0.8
	c0.1-0.1,0.2-0.3,0.2-0.5c0-0.1-0.1-0.3-0.2-0.4c-0.3-0.3-0.7-0.6-1-0.9c-0.1-0.1-0.3-0.1-0.4,0c0,0,0,0.1,0,0.1"/>
<path class="st3" d="M660.2,121.6c-0.1-0.1-0.3-0.2-0.5-0.2c-0.2,0-0.4-0.1-0.5,0c-0.2,0-0.3,0.1-0.5,0.2s-0.3,0.2-0.4,0.4
	c-0.2,0.3-0.2,0.7-0.1,1c0.1,0.4,0.3,0.7,0.6,0.9c0.3,0.2,0.7,0.3,1,0.2c0.4,0,0.7-0.2,1-0.4c0.4-0.4,0.5-1.3,0-1.5"/>
<path class="st3" d="M879.4,196.8c2.3-2.6,4-5.6,5-8.9c5.1-18.4-12-37.5-30.2-37.9c-1.8,0-3.6,0.1-5.4,0.4
	c-7.2,1.2-13.8,4.9-18.7,10.4c-0.8,1-1.6,2-2.3,3c-2.8,4.3-4.6,9.3-5.1,14.5c-0.5,5.2,0.2,10.4,2.1,15.2c1.4,3.5,3.5,6.7,6.1,9.3
	c5.3,5.3,13.1,7.9,20.7,7.6c7.6-0.4,14.9-3,21.1-7.5C875.1,201.1,877.4,199.1,879.4,196.8L879.4,196.8z"/>
<path class="st3" d="M866.7,210.9c1.5,2.2,3.5,4,5.8,5.4c2.3,1.4,4.8,2.2,7.5,2.5c0.7,0.1,1.5,0.1,2.2-0.2c1.6-0.6,2.2-2.5,2.3-4.2
	c0.5-6.1-2.1-12-5-17.5c-0.3-0.6-0.7-1.3-1-1.9c-2.9-5.3-5.9-10.7-8.9-16c-5.9-10.2-12.2-20.5-20.7-28.6c-1.8-1.8-3.8-3.5-5.9-5.1
	c-3.7-2.8-8.7-5.1-12.7-2.8c-2.5,1.5-3.7,4.5-3.8,7.4c0.1,2.9,0.6,5.7,1.6,8.4c0.1,0.4,0.3,0.8,0.7,0.8c0.4,0,0.2-0.8,0-0.6"/>
<path class="st4" d="M459.9,536.6c0.2,0,0.3,0,0.5,0c8.7-0.4,17.4-0.1,26.1,1"/>
<path class="st3" d="M103.1,536.9l15.9,14l20.6-14.4l-8,20.4l11.3,15.8l-18.2-2.5l-9.5,21.1l-6-19.2l-19.4-3.9l15.5-10.2
	L103.1,536.9z"/>
<path class="st3" d="M518.5,212.5l-19-3.9l-13.3,14.2l-3-20.2l-17.4-9.4l17.2-8.6l2.5-20l13.6,14.9l18.9-2.9l-8.7,17.8L518.5,212.5z
	"/>
<path class="st3" d="M858,386.7l-15.3-12l-18.2,6.9l6.2-19.4L819.3,346l19.2-0.1l11.1-16.9l5.6,19.4l18.3,5.7l-15.7,12.1L858,386.7z
	"/>
<path class="st3" d="M830.2,507.6l-4.4-14.8l-14.9-4l13-9.7l0.1-15.7l12.4,8.8l15-5.8l-5.3,15.1l9.2,12.2l-15.7,0.5L830.2,507.6z"/>
<path class="st3" d="M196.8,556.7c-0.8-5.5-1.7-11-2.8-16.4c-0.1-0.6-0.2-1.3-0.4-1.9c-0.1-0.5-0.2-1-0.3-1.5
	c-0.9-4.6-2-9.3-3.1-13.9"/>
<path class="st3" d="M179.2,555.9c4.2-5.6,8.4-11.2,12.6-16.9c0,0,0,0,0,0c0.5-0.7,1-1.3,1.5-2c3.3-4.6,6.7-9.3,9.9-14"/>
<path class="st3" d="M206.9,547c-1.5,0.2-2.9-0.5-4.1-1.3c-2.9-1.8-5.8-3.6-8.7-5.4c-0.7-0.4-1.4-0.9-2.1-1.3l0,0
	c-6.8-4.2-13.5-8.6-20.1-13.1"/>
<path class="st3" d="M172.1,545.8c6.5-2.5,13.1-4.7,19.7-6.8c0,0,0,0,0,0c0.6-0.2,1.2-0.4,1.8-0.5c5.6-1.7,11.2-3.2,16.9-4.6"/>
<path class="st3" d="M353.8,198.8c-3.5-4.4-6.9-8.8-10.4-13.2c-4.9-6.2-9.8-12.4-14.7-18.7"/>
<path class="st3" d="M331.6,198.9c4-4.4,8-8.8,11.8-13.3c4.6-5.3,9.1-10.7,13.5-16.1"/>
<path class="st3" d="M496.1,89.4c2.6-3.8,5.3-7.5,7.9-11.3c2.4-3.5,4.8-6.9,7.3-10.4"/>
<path class="st3" d="M511.2,86.3c-2.4-2.7-4.8-5.4-7.1-8.2c-3.2-3.6-6.4-7.3-9.6-10.9"/>
<path class="st3" d="M814.4,557.3c-2.6-4.9-5.3-9.7-8.1-14.4c-2.6-4.4-5.2-8.7-7.9-12.9"/>
<path class="st3" d="M790.9,555.4c5.2-4,10.3-8.2,15.3-12.5c5.6-4.9,11.1-9.9,16.5-15.1"/>
<path class="st3" d="M482,349.5c4.8-4.7,10-9.1,15.3-13.2"/>
<path class="st3" d="M469.6,340.3c3.9-11.9,7.4-23.9,10.7-35.9"/>
<path class="st3" d="M446.1,335.9c-0.8-6.1-2.2-12.2-4-18.1"/>
<path class="st4" d="M380.3,559.8l-6.3-7.9"/>
<path class="st4" d="M357,590.6c1.2-2.6,3-4.8,5.2-6.6"/>
<path class="st4" d="M431.9,568.8c-2.4-3.3-4.9-6.6-7.3-9.9"/>
<path class="st4" d="M452.9,555.1c1.5-3.1,3.5-5.9,6-8.2"/>
<path class="st4" d="M378.8,624.9c-1.6-2.7-3.2-5.3-4.8-8"/>
<path class="st4" d="M358,651.4c2.4-3.2,6.5-5.1,8.1-8.8"/>
<path class="st4" d="M332.7,572.8c-2.2-2.4-4.4-4.9-6.7-7.3"/>
<path class="st4" d="M306.6,583.2c-3.3,1.6-6.1,4.1-8.1,7.2c-0.3,0.5-0.9,1-1.4,0.7"/>
<path class="st4" d="M287.8,609.6c-1.2-0.5-2.2-1.4-3-2.4c-2-2.1-4.3-4-6.8-5.5"/>
<path class="st4" d="M256.6,639.7c2-4.2,4.4-8.2,7.2-11.9"/>
<path class="st4" d="M283.3,648.1c-2.9-1.7-5.8-3.4-8.6-5.1"/>
<path class="st4" d="M299.4,627.2l7.9-11.9"/>
<path class="st4" d="M299.3,658.3c-2.8,4.4-5.5,9-7.9,13.7"/>
<path class="st4" d="M245,613.6c2.3-4,4.5-8,6.8-12l-0.5,0.5"/>
<path class="st4" d="M247.2,678.1c-2.7-1.8-5.4-3.5-8.2-5.3"/>
<path class="st4" d="M328.4,685.9c-3.3-2.3-6.7-4.4-10.2-6.4c0-0.2,0-0.5-0.1-0.7"/>
<path class="st4" d="M289.5,713.4c1.5-4.5,3.5-8.9,5.8-13"/>
<path class="st4" d="M276,694.5c-2.7-1.2-4.9-3.4-6.1-6.1"/>
<path class="st4" d="M245.1,708.3c2.4-3.7,5.1-7.3,8-10.6"/>
<path class="st5" d="M392.7,846.5c-3.3-0.6-6.6-1.2-9.5-2.9c-0.2-0.1-0.5-0.3-0.7-0.5l-0.4,0.6c-13.5,12-28.8,21.7-45.3,28.9
	c-4.8,2.1-10,4-15.2,3.3c-3.1-0.5-6-1.6-8.6-3.3c-7.4-4.7-12.5-12.2-16.8-19.8c-2-3.6-4-7.3-4.8-11.4c-1.2-6.1,0.4-12.4,3.3-17.9
	c2.9-5.5,7-10.2,11.1-14.8c10.2-11.2,21.1-21.9,32.5-31.9c4.5-3.9,9.2-7.8,14.8-9.6c-30.5-10.9-65.2-5.1-96.5,6
	c-1.2,0.4-2.5-0.2-3-1.4c-0.4-1.2,0.2-2.5,1.4-3c33.3-11.8,71.4-18.2,104.5-4.1c0.7,0.3,1.1,0.8,1.3,1.5c3.4,0.1,6.9,0.7,10.3,1.3
	c-16.9-14.6-35-27.6-54.3-38.7l0-0.2c-23.1,3.6-46.7,5-67.3-5.4c-20.1,1.2-40.7,2.7-59.2,10.6c-19,8.1-35.8,24.4-38.7,44.9
	c-2.2,15.8,4.2,32,14.5,44.2c10.2,12.2,24,21.1,38.1,28.5c31.8,16.7,66.6,27.3,101.7,35.1c67.2,14.8,136.5,19.4,205.3,17.7
	c8.2-0.2,17.5-1.2,22.9-6.7c0.8-0.8,1.5-1.7,2.1-2.7c1.3-2.2,2.1-4.6,2.4-7.1c0.3-2.1,0.4-4.3,0.3-6.4c-0.2-7.8-1.6-15.5-4-22.9
	l-0.2-3C487.2,857.7,439.6,854.7,392.7,846.5z M233.4,733.7c0.7-0.1,1.3,0.2,1.8,0.6c4.5,4.3,8.6,9.1,12.2,14.3
	c0.7,1.1,0.5,2.5-0.6,3.2c-0.1,0.1-0.2,0.1-0.2,0.1c-0.5,1-1.7,1.5-2.8,1.2c-1.6-0.5-3.3-0.7-5-0.6c0,0-0.1,0-0.1,0
	c-5.6,0-11.3,0-16.9,0.1c-0.9,0-1.8-0.6-2.2-1.4c-0.4-0.9-0.2-1.9,0.5-2.5c4.2-4.4,8.1-9,11.6-14
	C232.2,734.2,232.8,733.8,233.4,733.7z M241.2,748c-2.2-2.9-4.7-5.7-7.3-8.4c-2.1,2.9-4.4,5.7-6.8,8.4c3.8,0,7.7,0,11.5,0
	C239.5,747.9,240.4,747.9,241.2,748z M230.4,796c-0.7-0.4-1.5-0.4-2.2-0.1c-0.7,0.4-1.2,1.1-1.3,1.8c-0.5,5.3-1.4,10.5-2.6,15.6
	c-0.2,0.9,0.1,1.9,0.9,2.4c0.8,0.6,1.8,0.6,2.6,0.1c4.9-3,9.7-6.2,14.3-9.6c0.5,0,1.1-0.1,1.5-0.5c0.6-0.5,1-1.2,0.9-2
	c0-0.2,0-0.5,0-0.7c0-1.3-1.1-2.3-2.4-2.2c-0.3,0-0.6,0.1-0.9,0.2C237.4,799.7,233.8,798,230.4,796z M230,809c2.3-1.5,4.5-3,6.8-4.6
	c-1.9-0.8-3.8-1.7-5.6-2.7C230.8,804.2,230.4,806.6,230,809z M289.3,780.8c0.8,0,1.6,0.4,2,1.1c2.6,4,4.9,8.1,7,12.4
	c0.6,1.2,0.1,2.5-1.1,3.1c-0.3,0.2-0.7,0.2-1.1,0.2c-0.4,0.6-1,1.1-1.8,1.1l-5.6,0.6h0l-11.3,1.3c-1,0.1-2-0.4-2.4-1.3
	c-0.4-0.9-0.2-2,0.5-2.7c4.6-4.3,8.5-9.2,11.7-14.6C287.7,781.3,288.4,780.8,289.3,780.8z M293,794.2c-1.1-2.3-2.4-4.5-3.7-6.7
	c-1.8,2.7-3.8,5.3-5.9,7.7l4.8-0.5h0L293,794.2z M418.5,863c-0.7-0.1-1.4,0.2-1.9,0.6c-0.5,0.5-0.8,1.2-0.7,1.9
	c0.4,5.1,0.6,10.2,0.4,15.3c0,0.9,0.5,1.7,1.3,2.1c0.8,0.4,1.8,0.3,2.5-0.2c5-3.9,9.7-8,14.4-12c0.5,0.1,1,0.3,1.5,0.4
	c1.2,0.3,2.5-0.4,2.9-1.6c0.3-1.2-0.4-2.5-1.6-2.8c-0.6-0.2-1.3-0.3-1.9-0.5c-0.5-0.3-1.1-0.5-1.6-0.4
	C428.7,864.4,423.6,863.5,418.5,863z M420.8,867.9c2.7,0.4,5.4,0.8,8.1,1.4c-2.6,2.2-5.2,4.5-7.8,6.6
	C421,873.3,420.9,870.6,420.8,867.9z"/>
<path class="st6" d="M629.1,839.3c-13.3,4.7-27,8.3-40.9,10.6c-12.9,2.2-25.8,3.7-38.9,4.6c-2,0.2-3.9,0.3-5.9,0.4
	c-2.9,0.2-5.8,0.3-8.7,0.5c-47.5,2.3-95.2-0.7-142.1-8.9c-3.3-0.6-6.6-1.2-9.5-2.9c-0.2-0.1-0.5-0.3-0.7-0.4
	c-2.7-1.8-4.9-4.4-6.1-7.4c-2.8-6.4-2.7-14.7-1.5-21.9c0.9-5.8,2.4-11.5,4.5-17c3.8-9.9,9.9-18.7,19.3-23.2l0-0.5
	c26.6-2.1,53.6-2.1,80.7-2c32.2,0,64.5,0.1,96-3.5c0.6,0.3,1.2,0.3,1.9,0c16.6-7,35-8.2,52.3-3.5c1.2,0.3,2.5-0.4,2.9-1.6
	c0.3-1.2-0.4-2.5-1.6-2.9c-18.3-5.1-37.9-3.8-55.4,3.7c-1.4-17.5-1.9-35.1-1.5-52.7l0.6,0c23.1-1.9,46.9-2,68.6,6
	c21.7,8,41.1,25.4,46.1,48.1c0.6,2.6,0.9,5.2,1.1,7.8c1,13.6-3.2,27.6-12.1,37.9c-4.9,5.6-11.1,10-17.5,13.9
	C650.6,830.4,640.1,835.4,629.1,839.3z M446.4,787.5c-0.5-0.7-1.4-1-2.2-0.9c-0.8,0.1-1.5,0.7-1.8,1.5c-1.8,5.2-4.6,10-7.6,15
	c-0.2,0.3-0.4,0.7-0.5,1.1c-0.1,0.5-0.1,0.9-0.1,1.4c0,0.1,0.1,0.2,0.1,0.4c0.4,1.2,1.4,1.7,2,1.8c0.6,0.1,1.1,0.1,1.4,0.1
	c6.5-0.4,13.1-0.5,19.6-0.2c1.3,0.1,2.4-0.9,2.4-2.2c0-1-0.6-1.9-1.5-2.3c-0.1-0.2-0.2-0.5-0.4-0.7
	C454.1,797.6,450.2,792.6,446.4,787.5z M445.2,793.6c2.4,3.1,4.8,6.2,7.1,9.3c-4.1-0.1-8.1,0-12.2,0.2
	C441.9,800.1,443.7,797,445.2,793.6z M437.3,803.3C437.3,803.3,437.3,803.3,437.3,803.3C437.3,803.3,437.3,803.3,437.3,803.3z
	 M622.1,783.6c0.6-0.5,0.9-1.3,0.8-2.2c-0.2-1.3-1.4-2.1-2.7-1.9l-21.4,3.7c-0.7,0.1-1.2,0.5-1.6,1.1c-0.4,0.6-0.4,1.3-0.2,1.9
	c0.7,2.1,2,3.7,3.2,5.1c0.5,0.5,0.9,1,1.4,1.4l0,0l0,0l0,0l0.2,0.2l0.2,0.2l0.1,0.1c0.6,0.6,1.1,1.1,1.6,1.7l0,0
	c1.7,2.1,2.8,4.6,3.9,7.5c0.2,0.6,0.5,1.1,0.7,1.7l3.1-4.6h0l-3.1,4.6c0.6,1.6,1.8,4.1,4.2,5.3c0.6,0.3,1.4,0.3,2,0
	c0.6-0.3,1.1-0.9,1.3-1.5C617.9,799.8,620,791.7,622.1,783.6z M614.3,795.2l7.8-11.6L614.3,795.2l2.7-10.4l-14.1,2.4
	c0.2,0.3,0.5,0.5,0.7,0.8c0.4,0.4,0.8,0.8,1.2,1.3l0,0l0,0c0.2,0.2,0.3,0.3,0.5,0.5c0.6,0.6,1.3,1.3,1.9,2l9.8-7l-9.8,7
	c1.9,2.3,3.2,5,4.2,7.6L614.3,795.2L614.3,795.2z M614.3,795.2l-2.9,4.2c0.2,0.4,0.4,0.9,0.5,1.3l0,0c0.2,0.4,0.4,0.9,0.5,1.3
	L614.3,795.2z M661.6,755.2c0-0.8-0.4-1.6-1-2.1c-0.7-0.5-1.6-0.5-2.3-0.1l-12.8,6.3c-0.7,0.3-1.1,0.9-1.3,1.7
	c-0.1,0.7,0.1,1.5,0.6,2c2,2.2,4.3,4,6.8,5.5l0,0c0.5,0.3,0.9,0.5,1.3,0.7c0.8,0.4,1.4,0.8,2.1,1.3c1,0.7,1.6,1.3,2,2
	c0.6,1.1,2,1.6,3.1,1c1.1-0.6,1.6-2,1-3.1c-0.1-0.1-0.1-0.2-0.2-0.4C661.1,765,661.4,760.1,661.6,755.2z M656.8,758.9l-0.4,7
	c-0.5-0.3-1-0.6-1.4-0.8l0,0h0v0l-0.2-0.1c-0.3-0.2-0.5-0.3-0.7-0.4h0c-1.2-0.7-2.4-1.6-3.5-2.5L656.8,758.9z M522.2,821.1
	c0.6,0.4,1,1.1,1,1.9c0.2,6.1,0.2,12.2-0.1,18.3c0,0.3-0.1,0.6-0.2,0.8c0,0.3-0.1,0.7-0.3,1c-0.6,1.1-2.1,1.5-3.2,0.8
	c-4.9-2.8-9.6-5.9-14.2-8.9l-4.4-2.8c-0.7-0.5-1.1-1.3-1.1-2.2c0.1-0.9,0.7-1.6,1.5-1.9l18.8-7.2
	C520.8,820.6,521.5,820.6,522.2,821.1z M518.6,838c0.1-3.9,0.1-7.7,0-11.6l-11.4,4.4l0.5,0.3C511.4,833.4,515,835.7,518.6,838z
	 M557.2,803.8l-3.8-7.1c0.9,0.2,1.9,0.4,3,0.6l0,0l0.4,0.1c1.2,0.3,2.4,0.5,3.8,0.7L557.2,803.8z M567.4,795.1
	c0.3,1.1-0.2,2.1-1.2,2.6c0,0.1-0.1,0.2-0.1,0.3l-6.9,11.8c-0.4,0.7-1.2,1.2-2.1,1.1c-0.8,0-1.6-0.5-2-1.2
	c-2.5-4.8-5.1-9.6-7.6-14.4c-0.4-0.7-0.4-1.5,0-2.2c0.4-0.7,1-1.1,1.8-1.2c2.9-0.4,5.7,0.3,8.1,0.8c0.1,0,0.2,0.1,0.4,0.1
	c0.1,0,0.1,0,0.2,0.1c2.7,0.6,4.7,1,6.7,0.5C565.8,793,567.1,793.8,567.4,795.1z"/>
<path class="st4" d="M443.6,518.3c0.1,7.6,0.1,15.2-0.2,22.8l0-0.7"/>
<path class="st4" d="M426.6,518.4c0.2,7.5,0.4,14.9,0.4,22.4c0-0.2,0.1-0.3,0.1-0.5"/>
<path class="st4" d="M410.1,518.4c-1.3,7.5,0,15.3-0.8,22.9c0,0.1,0,0.3,0.1,0.3c0.1,0.1,0.2-0.2,0.1-0.2"/>
<path class="st4" d="M394.4,518c0.2,7.8,0.2,15.5,0.2,23.3"/>
<path class="st4" d="M420.3,541.4c-0.2,12.1-0.4,24.2-0.6,36.3"/>
<path class="st4" d="M334.3,663.6c-1.6,20.5-1.5,41,0.4,61.5"/>
<g class="st7">
	<path class="st8" d="M380.4,527.4c0.4,3.8,2.3,11.4-1.9,13.7c-2.1,1.1-5.2,1.2-7.6,1.5c-3.6,0.5-7.2,1-10.8,1.5
		c-13.8,2-27.4,5-40.8,9.1c-25.6,8-49.9,20.2-68.8,39.5c-17.7,18.1-30.2,41.3-32.6,66.7c-2.4,26.3,8,53.8,31.8,67
		c29.9,16.5,64.2,7.9,94.8-1.5c13.3-4.1,7.6-25-5.8-20.9c-23.7,7.3-51.4,16.5-75.5,5.4c-20.3-9.4-27.7-32.3-24.8-53.3
		c6.8-49.4,54.2-79,98.7-90.3c6.8-1.7,13.6-3.2,20.4-4.4c7.1-1.3,14.5-1.8,21.6-3.3c7-1.6,13-5.9,15.5-12.9
		c2.2-6.2,1.1-13.3-0.6-19.5C392.1,518.3,379.6,519.3,380.4,527.4L380.4,527.4z"/>
</g>
<g class="st7">
	<path class="st9" d="M636.3,255.7c-26.4,3.1-42.4,30.8-38.7,55.7l11.3-11.3c-18.7-7.1-36.3,11.2-36,29.2
		c0.3,21.7,18.4,35.5,35.3,45.6l2.6-20c-15.7,2.7-29,14.7-33.9,29.8c-5.1,15.7,0.2,33.8,12.2,44.9l4.8-18.3
		c-19.5,5.3-31.7,26.9-25.7,46.3l10.6-13.9c-18.1-2.1-39.9-1.2-50,16.8c-10.2,18.1,2.5,36,15.5,48.3l10.7-18.4
		c-11.1-2.6-21.3,3.9-25,14.5c-3.6,10.2,1,20.5,6.1,29.2l3.9-15c-5.2,2.8-9.6,7.1-12.6,12.2c-3,5.2-4.5,11-4.3,17l18.7-7.7
		c-10.4-8.1-24.6-9.9-35.5-1.5c-9.4,7.2-13.6,20.8-9.1,32l10.5-13.8c-12.8,1-24.5,6-33.6,15.3c-9.8,10,5.5,25.4,15.4,15.4
		c4.8-5.1,11.3-8.2,18.2-8.8c6.2-0.5,13.5-6.7,10.5-13.8c-1.4-3.4-1.8-6.3,0.8-8.6c1.8-1.6,5.4-2.1,7.3-0.6
		c3.5,2.8,7.5,4.2,11.9,2.3c2-0.8,3.7-2.2,4.9-4c1.2-1.8,1.8-3.9,1.9-6c-0.1-4.6,1.8-8,6.1-10.3c5.3-2.8,6.8-10,3.9-15
		c-1.5-2.6-4.6-6.7-4.4-9.9c0.2-3.1,1.3-0.8-1.5-1.5c10.3,2.4,19.1-10.6,10.7-18.4c-5.3-5-17-15.2-11.4-22.8
		c6.2-8.4,21-5.9,30.3-4.8c7.1,0.8,12.5-7.7,10.6-13.9c-2.4-7.7,2-17.1,10.4-19.3c7.8-2.1,10.9-12.7,4.8-18.3
		c-6.5-6-9.5-15.1-6.6-23.6c2.8-8.2,10.3-13.1,18.6-14.5c9.7-1.6,10.1-15.5,2.6-20c-9.6-5.7-21.9-12.2-25.6-23.5
		c-1.3-3.8-1.8-8.2,0.8-11.6c2.5-3.2,5.9-4.5,9.6-3.1c7.2,2.5,12.4-5,11.3-11.3c-3-17.4,9.5-31.7,24.3-38.4
		C645.5,265.4,642.7,254.9,636.3,255.7L636.3,255.7z"/>
</g>
<g class="st7">
	<path class="st9" d="M683,412.7c-5.2-0.2-10.4,5.1-13.7,8.7c-4.2,4.5-7.5,9.8-9.7,15.6c-2,5.4-2.9,11.2-2.5,17
		c0.3,5.8,1.9,11.5,4.5,16.6c10.6,20.8,42.6,24.3,54.5,2.7l-18.8-2.5c1.7,6.5,5.4,12.3,10.6,16.7c5.1,4.4,11.5,7,18.2,7.7
		c10.9,1,29.7-7.6,26.8-21.2c-0.5-2.4-3.3-4.7-5.8-4.4c-3.9,0.4-6.1,2.7-9.7,4c-2.9,1.1-6,1.7-9.1,1.6c-5.6-0.4-9.6-4.6-11-9.8
		c-2.2-8.5-14.5-10.2-18.8-2.5c-2,3.6-6.5,5.1-10.3,4.5c-5-0.7-8.7-4.5-10.7-9.4c-2.7-6.5-1.6-12.9,0.3-19.4c1.1-3.9,3.3-7.4,5.1-11
		c1.9-3.6,5-6.2,4.9-10.5c0-1.2-0.5-2.3-1.3-3.1C685.2,413.2,684.1,412.7,683,412.7L683,412.7z"/>
</g>
<g class="st7">
	<path class="st9" d="M689.7,542.5l0.1-0.5c0-0.5-0.1-1-0.4-1.4c-0.2-0.4-0.6-0.8-1-1c-8.3-5.7-21.2-0.3-26.7,6.9
		c-6.8,8.9-8.7,21.4-2.2,31.1c14.5,21.8,49.9,12.6,55.3-11.8l-6.5,4.9c7.4-0.6,13.9-3.5,20.3-7.1c6.1-3.4,11.6-7.9,15-14.1
		c1.9-3.4-2.6-7.1-5.4-4.2c-4,4-8.1,8-13.3,10.4c-5.3,2.4-10.9,2.1-16.6,1.7c-3.2-0.2-5.4,2.3-6.5,4.9c-2.7,6.8-7.8,12.9-15.5,14
		c-3.6,0.5-7.4-0.2-10.6-1.8c-3.3-1.7-6-4.3-7.7-7.6c-4-7.2-2.2-16.1,5.2-20.2c4-2.2,7.6-2.2,12-2
		C687,544.8,689.4,544.7,689.7,542.5L689.7,542.5z"/>
</g>
<g class="st7">
	<path class="st9" d="M540.7,322.3c-7.4,0.7-10.7,4.8-14.7,10.6l2.1-1.6c-8.2,2.1-5.8,14.3-1.7,19c4.7,5.4,15.3,8.7,20.6,2.2
		c3.1-3.8,1.3-10.2-4.2-10.2c-2.9,0-5.6,1.4-7.6-1.4c-1.9-2.7-0.9-6.4-3.6-8.8l1,2.5c0.3-4,6-7.9,9-10.2c0.2-0.2,0.3-0.4,0.3-0.7
		c0-0.3,0-0.5-0.1-0.8c-0.1-0.2-0.3-0.4-0.5-0.6C541.2,322.4,540.9,322.3,540.7,322.3L540.7,322.3z"/>
</g>
<g class="st7">
	<path class="st9" d="M535.5,384.5c-11.9,0.4-20.1,13.5-16.5,24.6c0.9,2.9,2.5,5.6,4.6,7.9c2.1,2.3,4.6,4.1,7.5,5.2
		c5.4,2.3,14.7,3.7,17-3.4c0.2-0.7,0.2-1.5,0-2.2c-0.2-0.7-0.6-1.4-1.1-1.9c-3.4-3-6.3-1.2-10.3-1.9c-1.8-0.3-3.5-1-5-2.1
		c-1.5-1.1-2.6-2.5-3.4-4.1c-3.9-8.1,0.7-15.4,8.1-19.2c0.3-0.2,0.6-0.5,0.7-0.8c0.1-0.3,0.2-0.7,0.1-1.1c-0.1-0.4-0.3-0.7-0.6-0.9
		C536.2,384.7,535.8,384.5,535.5,384.5L535.5,384.5z"/>
</g>
<g class="st7">
	<path class="st9" d="M193.7,213.1c-13.8,4-27,10.9-39.5,17.8c-12.8,7.1-24.4,16.2-34.4,26.9c-21.1,22.5-36.2,51.1-38.5,82.2
		c-4.9,65.7,39.2,123.5,99,146.4c17.9,6.9,37.4,8.5,56.4,8.5c9.6,0,19.7-1.9,29.2-3.5c4.7-0.6,9.3-1.7,13.9-3
		c4.5-1.6,8.9-3.8,13.2-5.7c4-1.8,0.9-7-2.7-6.5c-8,1.2-16.2,1.7-24.3,2.5c-7.6,0.8-15.3,0.9-22.9,0.1c-7.9-0.9-15.6-0.9-23.4-2.7
		c-7.5-1.7-14.9-3.8-22.2-6.2c-25.7-9-48.3-22.2-66.3-43.1C95,384.5,89.1,317.3,124,272.5c9.4-12,20.4-22.1,32.2-31.6
		c12.1-9.8,25.4-16.7,39.1-24C197.4,215.8,196,212.4,193.7,213.1L193.7,213.1z"/>
</g>
<g class="st7">
	<path class="st9" d="M404.1,517.2c3.1-3.5,2.3-7.7,2.3-12.1c0-5.1-0.3-10.4,0-15.5c0.6-9.7,1-19.4,1.5-29.1
		c0.5-9.4,0.7-19.1,3.6-28.2c1.3-3.9,3.2-7.7,5.5-11.1c2-3.2,4.8-6,6.4-9.4c0.2-0.5,0.4-1,0.4-1.5c0-0.5-0.1-1-0.4-1.5
		c-0.3-0.4-0.6-0.8-1.1-1.1c-0.4-0.3-0.9-0.4-1.5-0.4c-8.3-0.4-15.2,8.3-18.3,15.1c-4.3,9.6-5.4,20-6,30.4
		c-0.7,10.9-1.6,22.1-0.9,32.9c0.4,5.8,0.5,11.6,0.7,17.5c0.1,4.7-0.6,10.6,2.9,14.1c0.6,0.6,1.5,1,2.4,1S403.4,517.9,404.1,517.2
		L404.1,517.2z"/>
</g>
</svg>
