<?xml version="1.0" encoding="utf-8"?>
<!-- Generator: Adobe Illustrator 24.3.0, SVG Export Plug-In . SVG Version: 6.00 Build 0)  -->
<svg version="1.1" id="Layer_1" xmlns="http://www.w3.org/2000/svg" xmlns:xlink="http://www.w3.org/1999/xlink" x="0px" y="0px"
	 viewBox="0 0 960 960" style="enable-background:new 0 0 960 960;" xml:space="preserve">
<style type="text/css">
	.st0{clip-path:url(#SVGID_2_);}
	.st1{opacity:0.85;fill-rule:evenodd;clip-rule:evenodd;fill:#FFFFFF;enable-background:new    ;}
	
		.st2{opacity:0.5;fill-rule:evenodd;clip-rule:evenodd;fill:#FFFFFF;stroke:#FFFFFF;stroke-miterlimit:10;enable-background:new    ;}
	.st3{fill:#FFFFFF;}
	.st4{opacity:0.5;fill:#FFFFFF;enable-background:new    ;}
	.st5{opacity:0.85;fill:#FFFFFF;}
	
		.st6{opacity:0.8;fill:none;stroke:#FFFFFF;stroke-width:2.718;stroke-linecap:round;stroke-linejoin:round;enable-background:new    ;}
	.st7{fill:none;stroke:#171717;stroke-width:2.718;stroke-linecap:round;stroke-linejoin:round;}
	
		.st8{opacity:0.4;fill:none;stroke:#FFFFFF;stroke-width:2.718;stroke-linecap:round;stroke-linejoin:round;enable-background:new    ;}
	.st9{fill:#FFFFFF;stroke:#FFFFFF;stroke-width:2.718;stroke-linecap:round;stroke-linejoin:round;}
	
		.st10{opacity:0.25;fill:#FFFFFF;stroke:#171717;stroke-width:2.718;stroke-linecap:round;stroke-linejoin:round;enable-background:new    ;}
	.st11{fill:#FFFFFF;stroke:#171717;stroke-width:2.718;stroke-linecap:round;stroke-linejoin:round;}
	
		.st12{opacity:0.4;fill:#FFFFFF;stroke:#FFFFFF;stroke-width:2.718;stroke-linecap:round;stroke-linejoin:round;enable-background:new    ;}
	.st13{fill:none;stroke:#FFFFFF;stroke-width:2.718;stroke-linecap:round;stroke-linejoin:round;}
	.st14{fill:none;stroke:#000000;stroke-width:2.718;stroke-linecap:round;stroke-linejoin:round;}
	.st15{fill:#FFFFFF;stroke:#FFFFFF;stroke-miterlimit:10;}
	.st16{opacity:0.1;}
	.st17{fill:#171717;}
</style>
<g>
	<g>
		<defs>
			<rect id="SVGID_1_" x="34.9" y="131.4" width="883" height="709"/>
		</defs>
		<clipPath id="SVGID_2_">
			<use xlink:href="#SVGID_1_"  style="overflow:visible;"/>
		</clipPath>
		<g class="st0">
			<path class="st1" d="M670.3,445.5c-23.3,10.4-41.1,36.2-49.3,61.7c-4.9,15.3-4.9,34.5-4.8,54c0,11.7,0,23.5-1,34.6
				c-1.2,12.5-3.7,24.1-9.2,33.6l2.8,2.8l0,0c14.6,0.5,32.5,0.3,50.3,0.2c17.9-0.2,35.7-0.3,50.3,0.2c3.1,0.1,6.3,0.2,9-1.3l0,0l0,0
				c5.3-3,5.8-10.3,5.6-16.4c-0.3-9.2-0.5-20.1-0.8-30.9c-0.3-10.9-0.5-21.8-0.8-31.1h0.1c8.2,16.2,15.7,32.9,19.6,50.6
				c5,22.7,3.6,47.8-9,67.3c-1.2,1.9-2.6,3.8-4,5.6c-3.9,5.1-8.4,9.7-12.9,14.3c-4.6,4.8-9.2,9.6-13.3,14.8
				c-3.5,4.5-6.3,9.4-8.3,14.6c-1.2,3.1-2.1,6.4-2.6,9.7c-1.1,6.3-0.2,12.8,2.7,18.5c0.8,1.5,1.7,2.8,2.7,4.1
				c8,10.2,22.9,14.1,36.3,13.8c40.8-0.9,77.5-31.2,92.7-69.1c15.2-37.9,11-81.6-4.3-119.4c-11.2-27.6-27.8-52.4-46.8-75.5
				c-7.1-8.6-14.4-16.9-22-25.1c-14.6-15.8-31.6-31.8-52.5-35.4c-1.1-0.2-2.2-0.4-3.3-0.5C688.3,440.1,678.8,441.6,670.3,445.5z
				 M747.5,491.6c-0.6-0.4-1.5-0.2-1.9,0.4s-0.2,1.5,0.4,1.9c54.5,34.9,85.2,103.7,74.6,167.5c-0.1,0.7,0.4,1.4,1.1,1.6
				c0.7,0.1,1.4-0.4,1.6-1.1C834.1,596.9,803,527.1,747.5,491.6z"/>
			<path class="st2" d="M607.5,422.2c-1.4,6-2.8,11.9-4.1,17.9c-0.4,1.8-0.7,3.7-1,5.6c-3.2,19.8-2.7,44.2-0.3,68.8
				c2.8,29.3,8.3,58.9,13,81.4c1-11,1-22.8,1-34.5c0-19.5-0.1-38.8,4.8-54c8.2-25.6,26-51.4,49.3-61.7c8.1-13.7,1.4-28.2-2.5-35.5
				c-1.7-3.2-3.7-6.3-5.8-9.3c-2.6-3.9-5.2-7.9-7.2-12.1c-8.8-18.7-5-40.6-1.1-60.8l-0.1-0.5c6.2-1.2,11.9-4.4,16.1-9
				c8.7,18,26,31.4,45.4,36.2c-8.4,26.7-13.1,59-14.1,86.9v0.2c20.9,3.7,37.9,19.7,52.5,35.4c7.5,8.1,14.9,16.5,22,25.1l0.7-0.5
				c2.4-18.5-3.9-40-9.9-60.6c-3.3-11.4-6.6-22.4-8.2-32.5c-2-11.9-1.7-24.1-1.4-36.2c0.3-14.8,0.6-29.6-3.1-43.9
				c-7.9-30-35.4-54.3-66.3-56.5s-62.4,19.4-69.8,49.5c-2.8,11.4-2.3,23.2-1.9,35c0.2,6.1,0.5,12.3,0.3,18.4
				C615,390.7,611.3,406.4,607.5,422.2z M696.2,279.8c-0.7-0.2-1.5,0.1-1.7,0.8c-0.2,0.7,0.1,1.5,0.8,1.7
				c26.7,9.1,47.1,34.5,50.3,62.5c0.1,0.7,0.8,1.3,1.5,1.2c0.7-0.1,1.3-0.8,1.2-1.5C745,315.6,723.9,289.3,696.2,279.8z"/>
			<path class="st1" d="M547.9,507c5.3,14,9.3,28.5,12,43.2c6.1,32.7,6.8,71.4,7.4,104.8v1.4l-6.1,7.5H538v-34.5h-31.3v34.5H377.1
				v23.7h100.7v29.8h-0.3l-252.2-2.8v-0.3c1.6-12.1,3.5-24.2,5.6-36.3v-0.1c-16.5-3.2-32.2-9.3-44.2-20.8
				c-14.7-14.2-21.5-34.8-24.8-55c-6.3-38.4-1.5-79.7,19.5-112.5c16.5-25.7,42-44.8,69.9-56.9s57.5-17.7,87.9-20.2h0.6
				c-0.1,3.2-0.1,6.3-0.1,9.5v0.3c31-2.1,62.1-3.7,93.2-4.7v-0.7c0.2-1.9,0.3-3.8,0.3-5.7h0.2c11.1,0.6,22,3,32.4,7
				c21,8.1,39.9,22.4,54.2,39.9C532.1,472.7,541.1,489.3,547.9,507z M373.2,555.7c0.1,0,0.2-0.1,0.3-0.1c0.3-0.1,0.5-0.3,0.8-0.4
				l0.2,0.3c-11.3,6.9-20.8,16.3-27.8,27.5l-0.5,0.2c3.1,4.4,4.1,10.3,4.7,15.8c0.8,7.3,1.2,14.6,1.4,21.9h1.4
				c11.2,12.9,27.1,20.8,44.1,22.1c5.7,0.4,12.9-1.1,14.2-6.6c1.2-5.2-3.8-9.4-9-11l0.1-0.5l64.8,4.5v-64.8l-41.3-2.9l0,0
				c5.7,0.3,12.2-2.7,12.6-8.3c0.2-3.5-2.2-6.7-5.2-8.4c-2.2-1.1-4.5-1.8-6.9-2.1l0.1-0.5c-0.4-3.5-2.9-6.5-6-8.2
				c-3.2-1.5-6.7-2.2-10.3-2.1c-7.9,0.1-15.6,2.4-22.3,6.7c-6.7,4.2-12.1,10.2-15.7,17.2C372.9,555.9,373,555.8,373.2,555.7z
				 M250.5,508.5c0.7,0.3,1,1.1,0.6,1.8c-5.5,11.3-9.4,23.3-11.6,35.6c-0.7,4-1.2,7.9,0.2,11.3c1.2,2.7,3.4,4.7,6.2,6.3
				c2.8,1.5,6.2,2.5,9.4,3.2c19.8,4.5,40.3,5.2,60.3,2.1c0.7-0.1,1.4,0.4,1.5,1.1s-0.4,1.4-1.1,1.5c-20.4,3.1-41.2,2.4-61.3-2.2l0,0
				c-3.3-0.8-7-1.8-10.1-3.5c-3.2-1.7-5.9-4.1-7.4-7.6c-1.8-4.2-1.1-8.8-0.4-12.8l0,0c2.3-12.6,6.3-24.8,11.9-36.3
				C249,508.4,249.9,508.1,250.5,508.5z M498,443.4c-0.6-0.5-1.4-0.4-1.9,0.1c-0.5,0.6-0.4,1.4,0.1,1.9c29,25.6,47.9,60.8,53.3,99.2
				c0.1,0.7,0.8,1.3,1.5,1.2s1.3-0.8,1.2-1.5C546.7,505.2,527.5,469.4,498,443.4z"/>
			<path class="st3" d="M803.3,766.9l32.7,36.4h-53.6L803.3,766.9z"/>
			<path class="st3" d="M733,803.3h-98.5v13.5H733V803.3z"/>
			<path class="st4" d="M716.4,631.6c6.2,14,9.7,29,10.1,44.3l0.4,0.3c-8,10.3-18.2,18.8-26.2,29.1c-3.5,4.5-6.3,9.4-8.3,14.6
				l-0.7-0.3l-110.3-1.3v-0.2c1.4-10.6,2.9-20,4.3-30.7h52.9v-23.7l-32.1-31.8c29.2,1,71.5-0.6,100.7,0.4c3.1,0.1,6.3,0.2,9-1.3h0.1
				L716.4,631.6z"/>
			<path class="st3" d="M584.6,750.9v72.3h-62.7v-72.3h27.5H584.6z"/>
			<path class="st3" d="M549.4,718.1v32.8h-27.5h-13h-31.2v-33.6v-29.8h71.6v30.6H549.4z"/>
			<path class="st5" d="M545.3,419c15.9,16.6,33.3,26.3,56.3,26.5l0.8,0.1c-3.2,19.8-2.7,44.2-0.3,68.8h-0.4
				c-16.4,1-38.4-1.6-53.8-7.5c-6.7-17.7-15.8-34.3-27.7-48.9c-14.3-17.5-33.2-31.8-54.2-39.9l0.2-0.4c-4.3-20.9-6.5-42.1-6.6-63.4
				c0-3.2,0.1-6.8,2.3-9.1c2.5-2.7,6.6-2.9,10.3-2.9h3.9c10.7,0.1,21.4,0.1,32.1,0.2c0.4,0,0.8,0,1.2,0c3.1,0,6.5,0.1,8.9,2.2
				c3.1,2.7,2.9,7.5,2.8,11.6c-0.3,11.5,1.7,23,5.9,33.7C531.1,400.8,537.3,410.6,545.3,419L545.3,419z"/>
			<path class="st3" d="M467.8,564.6v64.8l-64.8-4.5v-64.8l23.5,1.6L467.8,564.6z"/>
			<path class="st5" d="M433.1,401.6c0.2,3.2,0.3,6.4,0.2,9.6c-0.1,1.9-0.2,3.8-0.3,5.7v0.7c-31.1,1-62.2,2.6-93.2,4.7V422
				c0-3.2,0-6.3,0.1-9.5c0.1-3,0.3-6,0.5-8.9c0-2.1,0.5-4.2,1.6-6c1.7-2.5,5-3.5,8-3.6s6.1,0.3,9.1-0.1l0.4-0.6
				c4.3,3.1,9,5.6,13.9,7.6c10.4,4.3,22,6.6,33.1,4.7c7.7-1.2,14.9-4.6,20.8-9.8l0.5,0.6c1.2-1,3.2-0.4,4.1,0.9
				C432.7,398.5,433.2,400,433.1,401.6L433.1,401.6z"/>
			<path class="st4" d="M394.1,341.7c5.7,1.5,11.7,2.4,17.5,3.8c5.2,1.1,10.1,3.2,14.6,6c1.9,1.2,3.6,2.7,5.1,4.4
				c7.5,8.4,8,21.8,2.5,31.6c-1.7,3.1-3.9,5.8-6.5,8.2c-5.9,5.2-13.1,8.6-20.8,9.8c-11.1,1.8-22.7-0.5-33.1-4.7
				c-4.9-2-9.6-4.5-13.9-7.6c-5.4-3.7-9.9-8.6-13.2-14.3c-5.8-10.3-6.1-24.3,1.5-33.4c2.8-3.2,6.3-5.8,10.2-7.4
				c3.8-1.6,7.9-2.4,12-2.6c8.4-0.3,16.6,2.1,24.3,5.4L394.1,341.7z M390.9,362.2c0.7-1.4,1.1-3,1.1-4.6s-0.4-3.2-1.2-4.6
				c-2.9-5.6-10.1-7.6-16-7.8c-3.4-0.2-6.8,0.9-9.4,3.1c-1.3,1.1-2.2,2.6-2.7,4.2s-0.6,3.3-0.2,5c1.2,4.1,5.6,6.5,9.6,8
				c3.2,1.3,6.7,1.9,10.1,1.8C385.7,367,389.2,365.3,390.9,362.2z"/>
			<path class="st3" d="M417.5,810h-36.2v32.3h36.2V810z"/>
			<path class="st4" d="M387.5,569.6c4.9-6.8,12.8-12,21.2-11.7c5.8,0.2,11.3,3.1,17.1,3.7c0.2,0,0.5,0,0.7,0.1l0,0l-23.5-1.6v64.8
				l-0.1,0.5c-0.7-0.2-1.4-0.4-2.1-0.5c-5.9-0.9-12.4,0-17.6-3.1c-4.5-2.7-7-8.1-7.4-13.4c-0.4-5.3,0.8-10.5,2.2-15.7
				C380,584.7,382.5,576.4,387.5,569.6z"/>
			<path class="st4" d="M365.5,247.5c8.2,0.1,16.3,1.4,24.4,1.5c8.2,0.2,16.6-0.8,23.6-5c5.9-3.7,10.6-8.9,13.6-15.2
				c0.5-1.3,1.3-2.4,2.3-3.4c0.5-0.5,1.1-0.7,1.8-0.8s1.4,0.2,1.9,0.6c0.9,0.9,0.9,2.3,0.8,3.6c-0.8,7.3-3.1,14.3-6.7,20.6
				c7.4-6.5,16.5-10.8,26.3-12.2c0.2,5-2.1,9.9-5.3,13.8s-7.4,6.9-11.5,9.8c8-2.1,16.2-3.6,24.5-4.6c2.9-0.4,6.7-0.2,7.8,2.6
				c1.1,2.7-1.5,5.4-3.9,7.1c-10.3,7-22.6,10.2-35.1,11.1c-3.5,0.3-7.1,0.4-10.6,0.3c-16-0.2-31.8-3.1-47.7-4.2
				c-4.4-0.3-9.4-0.3-12.7,2.6c-3.8,3.4-3.8,9.3-3.5,14.5c0.8,13.8,1.6,27.5,2.4,41.3h-0.1c-4.2,4-9.2,7-14.8,8.7
				c-0.7-1.6-0.8-3.3-0.5-5s1.2-3.2,2.4-4.4c-2.7,2.3-5.8,4.2-9.2,5.4c-1.1,0.4-2.5,0.7-3.5-0.1c-1.3-1.1-0.6-3.1,0.1-4.6
				c6.1-13.1,8.5-27.6,7.2-42c-0.6-5.9-1.8-11.8-1.8-17.7s1.3-12.1,5.2-16.7C348,249,357.2,247.4,365.5,247.5z"/>
			<path class="st3" d="M336.5,750.9h-72.9V811h72.9V750.9z"/>
			<path class="st3" d="M200.2,750.9l23,34.2l-56.3,1.9L200.2,750.9z"/>
			<path class="st6" d="M390.2,335.7c1.7-0.6,3.5-0.2,5.2,0c1.8,0.1,3.8-0.1,4.9-1.4c0.8-1.2,1.1-2.6,0.9-4
				c-0.1-10.6-3.7-20.9-3.9-31.5c0-1,0-2.1,0-3.1c-0.1-1.3,0.4-2.6,1.2-3.6c0.9-0.7,2.1-1,3.3-0.9c5.2-0.2,10.5,0.2,15.6,1.3"/>
			<path class="st6" d="M384.5,304.9c-0.6-0.9-1.4-1.6-2.3-2.1s-1.9-0.8-3-0.8c-1,0-2.1,0.1-3,0.6c-1,0.4-1.8,1.1-2.5,1.9"/>
			<path class="st6" d="M407.1,304.3c0.6-0.6,1.3-1.1,2.1-1.5c0.8-0.3,1.7-0.5,2.5-0.5c0.9,0,1.7,0.3,2.5,0.7c0.8,0.4,1.5,1,2,1.7"
				/>
			<path class="st7" d="M394.3,341c-7.7-3.3-15.9-5.7-24.3-5.4c-4.1,0.1-8.2,1-12,2.6c-4,1.6-7.5,4.1-10.2,7.4
				c-7.6,9.1-7.3,23-1.5,33.4c3.3,5.7,7.8,10.5,13.2,14.3c4.3,3.1,9,5.6,13.9,7.6c10.4,4.3,22,6.6,33.1,4.7
				c7.7-1.2,14.9-4.6,20.8-9.8c2.6-2.4,4.8-5.1,6.6-8.2c5.5-9.8,5-23.2-2.5-31.6c-1.5-1.7-3.2-3.2-5.1-4.4c-4.5-2.8-9.4-4.8-14.6-6
				c-5.8-1.4-11.7-2.3-17.5-3.8c-1.5-0.4-3.1-0.9-4.6-1.4"/>
			<path class="st7" d="M374.7,345.3c-3.4-0.2-6.8,0.9-9.4,3.1c-1.3,1.1-2.2,2.6-2.7,4.2s-0.6,3.3-0.2,5c1.2,4.2,5.6,6.5,9.6,8
				c3.2,1.3,6.7,1.9,10.1,1.8c3.4-0.3,6.9-2,8.6-5c0.7-1.4,1.1-3,1.1-4.6s-0.4-3.2-1.2-4.6C387.9,347.5,380.7,345.5,374.7,345.3z"/>
			<path class="st8" d="M426.4,351.3c3.3-24.6,4.5-49.4,3.5-74.2c0-0.1,0-0.2,0-0.3"/>
			<path class="st7" d="M358.1,338.6c0-0.1,0-0.3,0-0.4c-0.1-2.2-0.3-4.4-0.4-6.6c-0.8-13.8-1.6-27.5-2.4-41.3
				c-0.3-5.1-0.3-11,3.5-14.5c3.3-3,8.3-3,12.7-2.6c15.9,1.2,31.7,4,47.7,4.2c3.5,0,7.1,0,10.6-0.3c12.5-1,24.8-4.1,35.1-11.1
				c2.4-1.6,5-4.4,3.9-7.1c-1.1-2.7-4.8-2.9-7.8-2.6c-8.2,1-16.4,2.5-24.5,4.6c4.1-3,8.2-6,11.5-9.8c3.2-3.9,5.6-8.8,5.3-13.8
				c-9.7,1.4-18.9,5.7-26.3,12.2c3.6-6.3,5.9-13.4,6.7-20.6c0.1-1.3,0.2-2.7-0.8-3.6c-0.6-0.4-1.2-0.6-1.9-0.6
				c-0.7,0-1.3,0.3-1.8,0.8c-1,1-1.7,2.1-2.3,3.4c-3,6.3-7.7,11.5-13.6,15.2c-7,4.1-15.5,5.2-23.6,5c-8.2-0.2-16.3-1.5-24.4-1.5
				c-8.3-0.1-17.4,1.5-22.8,7.8c-3.9,4.5-5.2,10.7-5.2,16.7c0,5.9,1.3,11.8,1.8,17.7c1.4,14.4-1.1,28.9-7.2,42
				c-0.7,1.5-1.3,3.5-0.1,4.6c0.9,0.8,2.3,0.5,3.5,0.1c3.4-1.2,6.5-3,9.2-5.4c-1.2,1.2-2.1,2.7-2.4,4.4c-0.3,1.7-0.2,3.4,0.5,5
				c5.5-1.7,10.6-4.7,14.8-8.7"/>
			<path class="st7" d="M359.1,393.8c-3,0.5-6.1,0-9.1,0.1c-3,0.2-6.3,1.1-8,3.6c-1,1.8-1.6,3.9-1.6,6c-0.2,3-0.4,5.9-0.5,8.9
				c-0.1,3.2-0.1,6.3-0.1,9.5"/>
			<path class="st7" d="M427.8,396.3c1.2-1,3.2-0.4,4.1,0.9c0.8,1.3,1.3,2.9,1.2,4.4c0.2,3.2,0.3,6.4,0.2,9.6
				c-0.1,1.9-0.2,3.8-0.3,5.7"/>
			<path class="st7" d="M339.3,412.5c-30.4,2.5-59.9,8.1-87.9,20.2s-53.5,31.2-69.9,56.9c-21,32.8-25.8,74.1-19.5,112.5
				c3.3,20.2,10.1,40.8,24.8,55c11.9,11.5,27.7,17.5,44.2,20.8c7.8,1.5,15.7,2.5,23.6,3.1c23.7,1.8,47.5,1.4,71.1-1.2
				c5.9-0.7,12-1.6,16.6-5.3c6.1-5,7.7-13.5,8.5-21.3c1.1-10.7,1.6-21.4,1.4-32.1c-0.1-7.3-0.6-14.6-1.4-21.9
				c-0.6-5.5-1.6-11.4-4.7-15.8c-0.9-1.2-1.9-2.4-3.1-3.3c-6.4-4.9-15.3-3.5-23.3-2.2c-19.4,3.1-39.1,3.9-58.7,2.2
				c-7.3-0.6-15.7-2.4-18.8-9"/>
			<path class="st7" d="M433.6,411.1c11.1,0.6,22,3,32.4,7c21,8.1,39.9,22.4,54.2,39.9c11.9,14.6,21,31.3,27.7,48.9
				c5.3,14,9.3,28.5,12,43.2c6.2,33.2,6.8,72.5,7.4,106.2v0.2"/>
			<path class="st7" d="M346.6,583c7-11.2,16.5-20.6,27.8-27.5c14.8-9.2,32-13.7,49.3-12.9c1.1,0.1,2.1,0.1,3.2,0.3
				c2.4,0.2,4.8,0.9,6.9,2.1c3,1.7,5.4,5,5.2,8.4c-0.4,5.6-6.9,8.6-12.6,8.3c-0.3,0-0.5,0-0.7-0.1c-5.8-0.6-11.3-3.4-17.1-3.7
				c-8.4-0.3-16.3,4.9-21.2,11.7c-4.9,6.8-7.4,15-9.6,23.1c-1.4,5.1-2.6,10.4-2.2,15.7s2.9,10.7,7.4,13.4c5.2,3.1,11.7,2.2,17.6,3.1
				c0.7,0.1,1.4,0.3,2.1,0.5c5.3,1.6,10.3,5.8,9,11c-1.3,5.5-8.5,7-14.2,6.6c-17-1.3-32.9-9.2-44.1-22.1"/>
			<path class="st7" d="M427,542.4c-0.4-3.5-2.9-6.5-6-8.2c-3.2-1.5-6.7-2.2-10.3-2.1c-7.9,0.1-15.6,2.5-22.3,6.7
				c-6.7,4.2-12.1,10.2-15.7,17.2c0.5-0.3,1-0.5,1.5-0.8"/>
			<path class="st7" d="M466.1,417.7c-4.3-20.9-6.5-42.1-6.6-63.4c0-3.2,0.1-6.8,2.3-9.1c2.5-2.7,6.6-2.9,10.3-2.9h3.9
				c10.7,0.1,21.4,0.1,32.1,0.2c0.4,0,0.8,0,1.2,0c3.1,0,6.5,0.1,8.9,2.2c3.1,2.7,2.9,7.5,2.8,11.6c-0.3,11.5,1.7,23,5.9,33.7
				c4.2,10.8,10.4,20.6,18.3,28.9c15.9,16.6,33.3,26.3,56.3,26.5"/>
			<path class="st6" d="M673.6,365.8c-0.7,0.2-1.4,0.5-1.9,1s-1,1.1-1.2,1.8c-0.2,0.7-0.3,1.4-0.2,2.1s0.4,1.4,0.8,2
				c0.4,0.6,1,1,1.7,1.3s1.4,0.4,2.1,0.4c0.7,0,1.4-0.3,2-0.6c0.6-0.4,1.1-0.9,1.5-1.5"/>
			<path class="st6" d="M681.8,394.7c1.2,0.3,2.5,0.4,3.7,0.1c1.2-0.2,2.4-0.6,3.5-1.3c1.1-0.7,2-1.5,2.7-2.6c0.7-1,1.2-2.2,1.4-3.4
				"/>
			<path class="st6" d="M666.5,349.9c0.2-2.3,0.4-4.7,0.6-7"/>
			<path class="st6" d="M694,353.1c-0.2-2.1-0.4-4.3-0.6-6.4"/>
			<path class="st6" d="M658.2,339c1.9-1.9,4.4-3.1,7-3.4c2.6-0.4,5.3,0.2,7.7,1.5"/>
			<path class="st7" d="M640.9,326.9c4.2,1.1,8.5,1.2,12.7,0.3c6.2-1.2,11.9-4.4,16.1-9c8.7,18,26,31.4,45.4,36.2
				c5.8,1.5,11.9,2.1,17.9,1.9"/>
			<path class="st7" d="M653.7,327.7c-3.9,20.3-7.6,42.1,1.1,60.8c3.6,7.6,9,14.1,12.9,21.5c4,7.3,10.6,21.8,2.5,35.5"/>
			<path class="st7" d="M715.2,354c0,0.2-0.1,0.3-0.1,0.5c-8.4,26.7-13.1,59-14.1,86.9"/>
			<path class="st7" d="M615.2,595.8c-4.8-22.5-10.2-52.1-13-81.4c-2.4-24.6-3-49,0.3-68.8c0.3-1.9,0.6-3.8,1-5.6
				c4.6-21.8,11.4-43.3,12.2-65.5c0.6-17.8-2.6-36,1.6-53.4c7.4-30.1,38.9-51.6,69.8-49.5c30.9,2.2,58.4,26.5,66.3,56.5
				c6.8,25.9,0.2,53.6,4.6,80.1c4.7,28.5,22,64.5,18.2,93.2"/>
			<path class="st7" d="M605.9,629.4c5.5-9.4,8-21,9.2-33.6c2.8-29.4-2-64.1,5.8-88.6c8.2-25.6,26-51.4,49.3-61.7
				c8.5-3.9,18-5.4,27.3-4.4c1.1,0.1,2.2,0.3,3.3,0.5c20.9,3.7,37.9,19.7,52.5,35.4c7.5,8.1,14.9,16.5,22,25.1
				c19,23,35.6,47.9,46.8,75.5c15.3,37.8,19.5,81.5,4.3,119.4s-51.9,68.2-92.7,69.1c-13.4,0.3-28.3-3.5-36.3-13.8
				c-1-1.3-1.9-2.7-2.7-4.1c-2.9-5.7-3.8-12.2-2.7-18.5c0.5-3.3,1.4-6.6,2.6-9.7c2.1-5.2,4.9-10.2,8.3-14.6
				c8-10.4,18.2-18.9,26.2-29.1c1.4-1.8,2.7-3.7,4-5.6c12.6-19.6,14-44.6,9-67.3c-3.9-17.7-11.4-34.3-19.6-50.6
				c-2.3-4.6-4.7-9.1-7-13.7"/>
			<path class="st7" d="M608.7,632.1c29.2,1,71.5-0.6,100.7,0.4c3.1,0.1,6.3,0.2,9-1.3h0.1c5.3-3,5.8-10.3,5.6-16.4
				c-0.5-18.5-1-43.4-1.5-62"/>
			<path class="st9" d="M814.6,721l96.1,1.1"/>
			<path class="st9" d="M549.8,718.1l33.8,0.4l110.3,1.3"/>
			<path class="st9" d="M30.8,712.4l194.5,2.2l252.2,2.8"/>
			<path class="st10" d="M477.8,687.6H377.1v-23.7h129.5h31.3h23.2h79.7v23.7h-52.9h-38.6"/>
			<path class="st7" d="M477.8,750.9v-33.6v-29.8h71.6V718v32.8"/>
			<path class="st7" d="M521.9,750.9h-13"/>
			<path class="st11" d="M509,750.9v72.3h-67.6v-72.3h36.5H509z"/>
			<path class="st7" d="M521.9,750.9h27.5h35.2v72.3h-62.7V750.9z"/>
			<path class="st7" d="M426.5,561.7l41.3,2.9v64.8l-64.8-4.5v-64.8L426.5,561.7z"/>
			<path class="st7" d="M336.5,750.9h-72.9V811h72.9V750.9z"/>
			<path class="st11" d="M404.8,750.9h-32.1V783h32.1V750.9z"/>
			<path class="st7" d="M733,803.3h-98.5v13.5H733V803.3z"/>
			<path class="st12" d="M640.9,663.9l-32.1-31.8l0,0l-2.8-2.8l-9.3-9.2l-29.4,36.2l-6.1,7.5"/>
			<path class="st10" d="M537.9,663.9v-34.5h-31.3v34.5"/>
			<path class="st7" d="M417.5,810h-36.2v32.3h36.2V810z"/>
			<path class="st7" d="M782.4,803.3l20.9-36.4l32.7,36.4H782.4z"/>
			<path class="st7" d="M223.3,785.1l-23-34.2L167.1,787L223.3,785.1z"/>
			<path class="st7" d="M547.6,506.9c0.1,0,0.2,0.1,0.2,0.1c15.4,5.9,37.4,8.5,53.8,7.5"/>
			<path class="st13" d="M490.9,313.7c0.8-9.2,1.5-18.4,2.3-27.6c0.2-2.3,0.2-5-1.6-6.5c-1.8-1.4-4.7-0.6-6.3,1.1s-2.1,4.1-2.6,6.4
				c-3.9,17.7-6.1,35.7-6.6,53.8"/>
			<path class="st13" d="M490.9,313.7c-0.4,2.9-0.6,5.9-0.7,8.8L490.9,313.7z"/>
			<path class="st13" d="M508.2,341.7c12.1-6,22-15.6,28.4-27.4c-2.3-7.2-15.3-1-19.3,6.3c-2.2,4-8,3-9.4,1.4
				c5.8-13.6,12.5-26.6,12.4-41.4c0-6.5-3.5-5-5-4.6c-0.5,0.1-3,1.1-4,7.1c-3.2,12.8-5.6,21.6-8.7,34.4c3.4-13.7,6.2-41.9,1.2-41.9
				c-7.5-1.5-11.2,24.7-12.9,38.2"/>
			<path class="st7" d="M230.9,677.9c-2.1,12.1-4,24.2-5.6,36.3"/>
			<path class="st6" d="M390.2,294.1h-26.7v23.8h26.7V294.1z"/>
			<path class="st6" d="M426.4,296.7h-21.8V317h21.8V296.7z"/>
			<path class="st6" d="M390.3,300.9c2-1.4,4.4-2.2,6.9-2.2s4.8,0.8,6.8,2.2"/>
			<path class="st6" d="M385.6,358.6c-2.1,0.4-4.2,0.3-6.3-0.1c-1.9-0.3-3.6-1.1-5-2.4c-0.7-0.7-1.3-1.5-1.7-2.4
				c-0.4-0.9-0.6-1.9-0.7-2.9"/>
			<path class="st7" d="M339.7,422.2c0.1,0,0.1,0,0.2,0c31-2.1,62.1-3.7,93.2-4.7l0,0"/>
			<path class="st7" d="M718.7,631.6c6.2,14,9.7,29,10.1,44.3c0.4-0.8,0.7-1.6,1.1-2.4"/>
			<path class="st7" d="M588,687.6c-1.4,10.6-2.9,20-4.3,30.7"/>
			<path class="st14" d="M500.4,477.8l2.3,20.5h12.8l3.8,16.4"/>
			<path class="st14" d="M399.9,461.2l-13.5,7.7l3.4,7.2l-10.7,9"/>
			<path class="st14" d="M289.1,456.9l10.9,6.4l-8.3,9.8l10.2,11.9"/>
			<path class="st14" d="M212.4,503l-17.3,3.9l3.2,18.2l-13.6,2.1"/>
			<path class="st14" d="M208.6,581.4h13.2l-6.6,22l12.9,1.4"/>
			<path class="st14" d="M307.5,615.9l10.2-11.1l-22.2-9l6.4-6.3"/>
			<path class="st14" d="M346.6,523.8l5.6-6l-17.9-11l5.5-6.9"/>
			<path class="st14" d="M482.3,527.3l-7.1,3l7.1,9.4l-10.8,7.6"/>
			<path class="st14" d="M521.9,594.8l8.6-11.6l11.4,5.8v-21.6"/>
			<path class="st14" d="M282.7,696.1l9.4,6.8l14.5-8.9l11.1,10.7"/>
			<path class="st13" d="M120.4,438.6c-0.7-5.1,4.6-9.7,9.7-9.2c5.1,0.4,9.3,4.9,10.6,9.8c1.3,5,0.1,10.3-1.9,15
				c-6.7,15.3-22.1,24.6-36,33.8c-13.9,9.3-28.3,21-31.1,37.5c-0.7,4-0.6,8.2,1.2,11.9c1.8,3.6,5.4,6.5,9.5,6.6c4,0,8-3.4,7.9-7.5
				c-0.2-4-5.3-7.2-8.7-5"/>
			<path class="st13" d="M221.7,408.1c-2.1-7-3.6-14.3-2.8-21.5s4.3-14.5,10.5-18.3c8.7-5.5,20-3.3,29.9-5.9
				c13.4-3.6,23.4-17.1,23-31c-0.1-3-0.8-6.3-3.3-8c-3.2-2.3-8-0.6-10.5,2.5c-5.8,7-1.7,18.8,6.6,22.4c8.3,3.5,18.5-0.4,24-7.5
				c5.5-7.2,6.8-16.8,5.7-25.8c-1-7.7-3.8-15.1-7.9-21.7c-4.2-6.6-9.8-12.1-16.3-16.3"/>
			<path class="st13" d="M469,310.8c-1-2.7-1.4-5.6-1.1-8.5c0.2-2.9,1.1-5.7,2.5-8.3"/>
			<path class="st13" d="M576.3,367.1c-5.2-2.3-9.7-6-13-10.7"/>
			<path class="st13" d="M564.1,368.4c3.8-4,7-8.4,9.6-13.3l-0.6,1.8"/>
			<path class="st13" d="M557.7,411.3l-5.1-9"/>
			<path class="st13" d="M550.1,410l7.7-5.8"/>
			<path class="st13" d="M596.1,305.9l-15.9-3.4"/>
			<path class="st13" d="M602.8,291.9c-8.2-11.9-17.2-23.1-27.1-33.6"/>
			<path class="st13" d="M614.2,283.3l-2.7-17.2"/>
			<path class="st13" d="M125.5,660.9l-10.4-10.1"/>
			<path class="st13" d="M115.4,662.6c2.8-3.3,5.3-6.8,7.5-10.5"/>
			<path class="st13" d="M135.5,612.3c-3.2-1.4-6-3.6-8.2-6.3"/>
			<path class="st13" d="M127.2,613.9c2.2-3.5,5.1-6.5,8.4-8.9"/>
			<path class="st13" d="M113.8,460l-6.9-5.9"/>
			<path class="st13" d="M106.2,462.4c2.8-3,5-6.4,6.6-10.1"/>
			<path class="st13" d="M306.6,358.8l7.3-6"/>
			<path class="st13" d="M312.6,362.3l-4.7-10.2"/>
			<path class="st13" d="M239.5,343.4l-4.5-10.1"/>
			<path class="st13" d="M231.2,341.5l10.6-5.2"/>
			<path class="st13" d="M359.5,208.4c3,6.5,5.2,13.4,6.6,20.4c4.6-3.1,9.9-4.9,15.5-4.9c1.1,0,2.4-0.2,2.7-1.2
				c0.1-0.4,0-0.8-0.1-1.2l-5.7-19.3"/>
			<path class="st13" d="M377.3,202.8c3.6-10.3,7.1-21.7,3.4-32c-1.1-3.1-2.9-5.9-5.1-8.3c-2.3-2.4-5-4.3-8-5.6s-6.3-2-9.6-2
				c-3.3,0-6.6,0.7-9.6,2s-5.7,3.2-8,5.6c-2.3,2.4-4,5.3-5.1,8.4c-1.1,3.1-1.6,6.4-1.4,9.7s1.1,6.5,2.6,9.4
				c4.7,9.1,14.5,14.2,23.9,18.2"/>
			<path class="st13" d="M359.5,207.8c5.3-2.3,10.9-4,16.7-4.9"/>
			<path class="st13" d="M364.7,215.3l11.4-4.4"/>
			<path class="st13" d="M371.5,201.5l-2.1-24.4c-0.9,2.1-1.9,4.3-3.9,5.4c-2,1.1-5.1,0.4-5.5-1.8c0.1,1-0.2,2-0.8,2.9
				c-0.6,0.8-1.5,1.4-2.4,1.7c-1,0.3-2,0.2-3-0.1c-1-0.4-1.7-1.1-2.3-2l8.6,14.7"/>
			<path class="st13" d="M322.4,184.8l-7.2-0.5"/>
			<path class="st13" d="M325.6,156.7l-17.7-12.3"/>
			<path class="st13" d="M356.8,144.4l-0.7-7.7"/>
			<path class="st13" d="M379.4,152.8l9-14.9"/>
			<path class="st13" d="M389.3,175.6l6.8-0.4"/>
			<path class="st9" d="M678.4,203l-8,25.8l-20.9-21L678.4,203z"/>
			<path class="st9" d="M738.1,241.9l19.2,18.2v-31.3L738.1,241.9z"/>
			<path class="st15" d="M502.4,224.7l2,7.4c0.1,0.2,0.1,0.5,0,0.7s-0.2,0.4-0.4,0.5c-0.2,0.1-0.4,0.2-0.6,0.2s-0.5-0.1-0.6-0.2
				l-6.3-4.3c-0.2-0.1-0.4-0.2-0.6-0.2s-0.4,0.1-0.6,0.2l-6.4,4.2c-0.2,0.1-0.4,0.2-0.7,0.2c-0.2,0-0.5-0.1-0.6-0.2
				c-0.2-0.1-0.3-0.3-0.4-0.5s-0.1-0.5,0-0.7l2.1-7.3c0.1-0.2,0.1-0.4,0-0.7c-0.1-0.2-0.2-0.4-0.4-0.5l-5.9-4.8
				c-0.2-0.1-0.3-0.3-0.4-0.6c-0.1-0.2-0.1-0.5,0-0.7s0.2-0.4,0.4-0.5c0.2-0.1,0.4-0.2,0.6-0.2l7.6-0.2c0.2,0,0.4-0.1,0.6-0.2
				s0.3-0.3,0.4-0.5l2.7-7.1c0.1-0.2,0.2-0.4,0.4-0.5s0.4-0.2,0.6-0.2s0.5,0.1,0.6,0.2c0.2,0.1,0.3,0.3,0.4,0.5l2.6,7.2
				c0.1,0.2,0.2,0.4,0.4,0.5c0.2,0.1,0.4,0.2,0.6,0.2l7.6,0.4c0.2,0,0.5,0.1,0.6,0.2c0.2,0.1,0.3,0.3,0.4,0.6c0.1,0.2,0.1,0.5,0,0.7
				s-0.2,0.4-0.4,0.6l-6.1,4.7c-0.2,0.1-0.3,0.3-0.4,0.5C502.4,224.3,502.4,224.5,502.4,224.7L502.4,224.7z"/>
			<path class="st15" d="M451.1,187l1.5,5.5c0,0.2,0,0.3,0,0.5c-0.1,0.2-0.2,0.3-0.3,0.4c-0.1,0.1-0.3,0.2-0.5,0.2s-0.3-0.1-0.5-0.1
				l-4.7-3.2c-0.1-0.1-0.3-0.1-0.5-0.1s-0.3,0-0.5,0.1l-4.8,3.1c-0.1,0.1-0.3,0.1-0.5,0.1s-0.3-0.1-0.5-0.2
				c-0.1-0.1-0.2-0.2-0.3-0.4c-0.1-0.2-0.1-0.3,0-0.5l1.6-5.5c0-0.2,0-0.3,0-0.5s-0.1-0.3-0.3-0.4l-4.4-3.6
				c-0.1-0.1-0.2-0.3-0.3-0.4c0-0.2,0-0.3,0-0.5c0.1-0.2,0.2-0.3,0.3-0.4c0.1-0.1,0.3-0.2,0.5-0.2l5.7-0.2c0.2,0,0.3-0.1,0.5-0.2
				c0.1-0.1,0.2-0.2,0.3-0.4l2-5.3c0.1-0.2,0.2-0.3,0.3-0.4c0.1-0.1,0.3-0.1,0.5-0.1s0.3,0.1,0.5,0.2c0.1,0.1,0.2,0.2,0.3,0.4
				l1.9,5.4c0.1,0.2,0.2,0.3,0.3,0.4c0.1,0.1,0.3,0.2,0.5,0.2l5.7,0.3c0.2,0,0.3,0.1,0.5,0.2c0.1,0.1,0.2,0.2,0.3,0.4
				c0.1,0.2,0.1,0.3,0,0.5s-0.2,0.3-0.3,0.4l-4.5,3.5c-0.1,0.1-0.2,0.2-0.3,0.4C451.1,186.7,451.1,186.9,451.1,187L451.1,187z"/>
			<path class="st7" d="M578.4,470.1l-3.8-9"/>
			<path class="st7" d="M532.8,449l7-6.4"/>
			<path class="st7" d="M509.8,409.9c-2.7-2.6-4.6-5.9-5.4-9.5"/>
			<path class="st7" d="M479,375.4c1.5-0.9,2.9-2,3.9-3.4s1.8-3,2.1-4.7"/>
			<path class="st7" d="M706.1,481l-5.1-9.6"/>
			<path class="st7" d="M664.8,510.7l7.5-6.6"/>
			<path class="st7" d="M699.5,440.6c-3.8,14-12.8,26.1-25.1,33.9c-3,1.9-6.4,3.5-9.9,3.2c-5.1-0.5-9-5.4-9.9-10.5
				s0.7-10.3,2.7-15.1"/>
			<path class="st7" d="M644.7,555.8l-5.1-7.7"/>
			<path class="st7" d="M688.8,566l7-7.1"/>
			<path class="st7" d="M659.7,609.9l-5.3-6.3"/>
			<path class="st7" d="M750.3,516.8l7.7-6.4"/>
			<path class="st7" d="M759.2,567.3l-7.7-9"/>
			<path class="st7" d="M792.5,571.2l8.3-3.2"/>
			<path class="st7" d="M807.1,623.7l-7-9"/>
			<path class="st7" d="M766.9,647.9l7.7-6.4"/>
			<path class="st7" d="M813.2,681l-4-8.2"/>
			<path class="st7" d="M766.2,704.2c3.4-0.5,6.5-2.1,9-4.5"/>
			<path class="st7" d="M731.8,723.3l-3.2-7.7"/>
			<path class="st7" d="M770.7,741.3l-1.3-9"/>
			<g class="st16">
				<path class="st17" d="M425.8,274.3c-3.5-2.2-7.3-1.6-11.3-1.6c-4.5,0-9.1-0.1-13.6-0.4c-9.1-0.5-18.1-3.2-27.2-3.3
					c-7.4-0.1-14.7,2.6-19.2,8.8c-2.2,3.1-3.3,6.6-4.5,10.1c-0.9,2.8-2.6,5.2-5.1,6.9c-5.7,4.4,0.5,13.8,6.9,11.8
					c6.8-2.1,10-8.5,12-14.9c0.9-3,1.2-7,4.1-8.8c3-1.9,7.2-1.4,10.6-1.1c8.4,0.7,16.7,1.5,25.2,1.4c6.7-0.1,17.4,0.9,22.6-4.1
					c0.3-0.3,0.6-0.7,0.7-1.2c0.1-0.4,0.2-0.9,0.1-1.4s-0.2-0.9-0.5-1.3C426.6,274.9,426.2,274.6,425.8,274.3L425.8,274.3z"/>
			</g>
			<g class="st16">
				<path class="st17" d="M466.7,343.3c-7,2.2-6.5,11.6-6.8,17.6c-0.4,7.8-0.2,15.6,0.6,23.4c1.4,15,4.1,30.9,9.7,45
					c3.6,9.1,17.7,5.7,15-4.1c-4.1-14.8-7.9-29.2-9.4-44.6c-0.8-7.5-0.9-15-1.1-22.5C474.5,353.7,475,340.7,466.7,343.3L466.7,343.3
					z"/>
			</g>
			<g class="st16">
				<path class="st17" d="M545.1,504.2c2.6,4.6,7,5.7,11.9,6.4c5.3,0.8,10.5,1.5,15.8,1.9c10.5,0.8,21,1.1,31.5,1
					c10.4-0.1,10.4-16.2,0-16.1c-10.2,0.1-20.4-0.2-30.6-1c-4.9-0.4-9.8-0.8-14.7-1.2c-5-0.5-9.4-0.6-13.3,3
					c-0.8,0.8-1.2,1.8-1.4,2.9C544.3,502.2,544.5,503.3,545.1,504.2L545.1,504.2z"/>
			</g>
			<g class="st16">
				<path class="st17" d="M670.5,444.8c-6.8,0.1-13.8,7-18.5,11.4c-5.6,5.4-10.5,11.5-14.7,18c-8.9,13.3-14.9,28.4-17.6,44.3
					c-3.2,19.3-1.9,38.5-2.6,58c-0.3,8.2-0.8,16.4-2.5,24.5c-0.9,4-2,8-3.5,11.9c-1.6,4-4,7.6-5.7,11.6c-2.8,6.6,4.8,14.1,10.7,8.2
					c5.8-5.8,9.1-14.4,11.6-22.1c2.5-8.1,4.2-16.5,4.9-24.9c2-18.4,0.3-37.1,1.1-55.5c0.8-15.8,5.3-31.2,13.1-45
					c3.8-6.7,8.3-12.9,13.3-18.7c2.4-2.7,4.7-5.4,7.3-8c2.6-2.7,5.6-5.2,6.8-8.9c0.1-0.6,0.2-1.2,0.1-1.7s-0.4-1.1-0.7-1.6
					c-0.4-0.5-0.8-0.8-1.3-1.1C671.6,444.9,671.1,444.8,670.5,444.8L670.5,444.8z"/>
			</g>
			<g class="st16">
				<path class="st17" d="M717.2,538.8c0.5,4.7,0.9,8.6,3,12.9c1.8,3.7,4,7.3,5.9,10.9c3.8,7.2,7.5,14.5,10.6,22
					c6.3,15.6,10.1,32.5,7.9,49.4c-4.7,35.1-29.7,63-52.4,88.3c-6.8,7.6,4.4,18.9,11.3,11.3c25.4-28.1,52-58.5,57.3-97.4
					c2.5-18.6-0.7-37-7.6-54.3c-3.5-8.9-7.6-17.5-12.4-25.8c-2.3-4.1-4.6-8.3-7.3-12.2c-2.8-4-6-6.2-9.9-8.8
					C721,533.5,716.8,535.7,717.2,538.8L717.2,538.8z"/>
			</g>
		</g>
	</g>
</g>
</svg>
